<svg xmlns="http://www.w3.org/2000/svg" width="1440" height="1024" fill="none">
  <g opacity=".03" stroke="#303030">
    <path d="M-7 .55h1441.67M-7 26.33h1441.67M-7 52.11h1441.67M-7 77.89h1441.67M-7 103.67h1441.67M-7 129.45h1441.67M-7 155.23h1441.67M-7 181.01h1441.67M-7 206.79h1441.67M-7 232.57h1441.67M-7 258.35h1441.67M-7 284.13h1441.67M-7 309.91h1441.67M-7 335.69h1441.67M-7 361.47h1441.67M-7 387.25h1441.67M-7 413.03h1441.67M-7 438.81h1441.67M-7 464.59h1441.67M-7 490.37h1441.67M-7 516.15h1441.67M-7 541.93h1441.67M-7 567.71h1441.67M-7 593.49h1441.67M-7 619.27h1441.67M-7 645.05h1441.67M-7 13.44h1441.67M-7 39.22h1441.67M-7 65h1441.67M-7 90.78h1441.67M-7 116.56h1441.67M-7 142.34h1441.67M-7 168.12h1441.67M-7 193.9h1441.67M-7 219.68h1441.67M-7 245.46h1441.67M-7 271.24h1441.67M-7 297.02h1441.67M-7 322.8h1441.67M-7 348.58h1441.67M-7 374.36h1441.67M-7 400.14h1441.67M-7 425.92h1441.67M-7 451.7h1441.67M-7 477.48h1441.67M-7 503.26h1441.67M-7 529.04h1441.67M-7 554.82h1441.67M-7 580.6h1441.67M-7 606.38h1441.67M-7 632.16h1441.67M-7 657.94h1441.67"/>
  </g>
  <g opacity=".03" stroke="#303030">
    <path d="M691.57 1024V0M721.06 1024V0M750.54 1024V0M780.03 1024V0M809.52 1024V0M839.01 1024V0M868.49 1024V0M897.98 1024V0M927.47 1024V0M956.96 1024V0M986.45 1024V0M1015.93 1024V0M1045.42 1024V0M1074.9 1024V0M1104.39 1024V0M1133.88 1024V0M1163.37 1024V0M1192.86 1024V0M1222.34 1024V0M1251.83 1024V0M1281.32 1024V0M1310.8 1024V0M1340.29 1024V0M1369.78 1024V0M1399.27 1024V0M1428.76 1024V0M706.31 1024V0M735.8 1024V0M765.29 1024V0M794.77 1024V0M824.26 1024V0M853.75 1024V0M883.24 1024V0M912.73 1024V0M942.21 1024V0M971.7 1024V0M1001.19 1024V0M1030.68 1024V0M1060.16 1024V0M1089.65 1024V0M1119.14 1024V0M1148.62 1024V0M1178.11 1024V0M1207.6 1024V0M1237.09 1024V0M1266.57 1024V0M1296.06 1024V0M1325.55 1024V0M1355.04 1024V0M1384.52 1024V0M1414.01 1024V0"/>
  </g>
  <g opacity=".03" stroke="#303030">
    <path d="M.79 1020.84V1.05M29.61 1020.84V1.05M58.43 1020.84V1.05M87.24 1020.84V1.05M116.06 1020.84V1.05M144.88 1020.84V1.05M173.69 1020.84V1.05M202.51 1020.84V1.05M231.32 1020.84V1.05M260.14 1020.84V1.05M288.96 1020.84V1.05M317.77 1020.84V1.05M346.59 1020.84V1.05M375.41 1020.84V1.05M404.23 1020.84V1.05M433.04 1020.84V1.05M461.86 1020.84V1.05M490.68 1020.84V1.05M519.49 1020.84V1.05M548.31 1020.84V1.05M577.13 1020.84V1.05M605.94 1020.84V1.05M634.76 1020.84V1.05M663.58 1020.84V1.05M15.2 1020.84V1.05M44.02 1020.84V1.05M72.83 1020.84V1.05M101.65 1020.84V1.05M130.47 1020.84V1.05M159.28 1020.84V1.05M188.1 1020.84V1.05M216.92 1020.84V1.05M245.73 1020.84V1.05M274.55 1020.84V1.05M303.37 1020.84V1.05M332.18 1020.84V1.05M361 1020.84V1.05M389.82 1020.84V1.05M418.63 1020.84V1.05M447.45 1020.84V1.05M476.27 1020.84V1.05M505.09 1020.84V1.05M533.9 1020.84V1.05M562.72 1020.84V1.05M591.53 1020.84V1.05M620.35 1020.84V1.05M649.17 1020.84V1.05M677.98 1020.84V1.05"/>
  </g>
  <g opacity=".03" stroke="#303030">
    <path d="M2.33 672.31H1444M2.33 698.09H1444M2.33 723.87H1444M2.33 749.65H1444M2.33 775.43H1444M2.33 801.21H1444M2.33 826.99H1444M2.33 852.77H1444M2.33 878.55H1444M2.33 904.33H1444M2.33 930.11H1444M2.33 955.89H1444M2.33 981.67H1444M2.33 1007.45H1444M2.33 685.2H1444M2.33 710.98H1444M2.33 736.76H1444M2.33 762.54H1444M2.33 788.32H1444M2.33 814.1H1444M2.33 839.88H1444M2.33 865.66H1444M2.33 891.44H1444M2.33 917.22H1444M2.33 943H1444M2.33 968.78H1444M2.33 994.56H1444M2.33 1020.34H1444"/>
  </g>
</svg>