<svg xmlns="http://www.w3.org/2000/svg" height="2666.667" width="2666.667" xml:space="preserve"><path style="fill:#fff;fill-opacity:1;fill-rule:nonzero;stroke:none" d="M20000 0H0v20000h20000V0" transform="matrix(.13333 0 0 -.13333 0 2666.667)"/><path style="fill:#241f20;fill-opacity:1;fill-rule:nonzero;stroke:none" d="m13779.5 18143.5 320.5-320.2 320.4 320.2 321.4-320 321.1 320 321.3-320 321.9 320 321.3-320 322.1 320 322.4-320 357.8 354.9-70.3 71.1-287.5-284.9-322.4 319.9-322.1-319.9-321.3 319.9-321.9-319.9-321.3 319.9-321.1-319.9-321.4 319.9-320.4-319.7-320.5 319.7-321.3-319.9-285.7 284.7-70.7-70.7 356.4-355.1 321.3 320M16671.9 17485.8l-322.4 320.2-322.1-320.2-321.3 320.2-321.9-320.2-321.3 320.2-321.1-320.2-321.4 320.4-320.4-320.2-320.5 320.2-321.3-320.4-285.7 285-70.7-70.7 356.4-355.3 321.3 320 320.5-320.2 320.4 320.2 321.4-320 321.1 320.1 321.3-320.1 321.9 320.1 321.3-320.1 322.1 320.1 322.4-320.1 357.8 355.1-70.3 71.1-287.5-285.2M12214.7 5704.4c-41.4-82.4-70.1-132.4-116.6-132.4s-75.2 50-116.6 132.6c-42.2 83.4-94.5 187.3-205.9 187.3-111.3 0-163.6-103.9-205.8-187.5-41.4-82.4-70-132.4-116.2-132.4-46.3 0-74.7 50-116.1 132.4-42 83.6-94.1 187.5-205.2 187.5-111.4 0-163.7-103.9-205.7-187.5-41.4-82.4-69.9-132.4-116.2-132.4s-74.6 50-116 132.4c-42 83.6-94.2 187.5-205.3 187.5-111.1 0-163.3-103.9-205.3-187.5-41.2-82.4-69.7-132.4-115.8-132.4-46.3 0-74.6 50-116 132.4-42 83.6-94.34 187.5-205.48 187.5-110.93 0-163.08-104.1-204.88-187.5-41.21-82.4-69.53-132.4-115.43-132.4-46.09 0-74.41 50-115.62 132.4-41.8 83.6-93.95 187.5-204.89 187.5-111.32 0-163.47-104.1-205.47-187.5-41.4-82.4-69.72-132.4-115.82-132.4-46.09 0-74.61 50-115.82 132.4-41.99 83.6-94.14 187.5-205.27 187.5v-100c46.09 0 74.61-50 115.82-132.4 41.99-83.6 94.14-187.5 205.27-187.5 111.14 0 163.29 103.9 205.28 187.5 41.4 82.4 69.72 132.4 116.01 132.4 45.9 0 74.22-50 115.43-132.2 41.8-83.6 93.95-187.7 205.08-187.7 110.94 0 163.09 104.1 204.88 187.5 41.21 82.4 69.54 132.4 115.43 132.4 46.29 0 74.61-50 116.02-132.4 41.96-83.6 94.36-187.5 205.46-187.5 111.1 0 163.3 103.9 205.3 187.5 41.2 82.4 69.7 132.4 115.8 132.4 46.1 0 74.4-50 115.8-132.4 42-83.4 94.2-187.5 205.5-187.5s163.7 103.9 205.7 187.5c41.4 82.4 69.9 132.4 116.2 132.4 46.1 0 74.4-50 115.8-132.4 42-83.4 94.1-187.5 205.5-187.5 111.3 0 163.4 103.9 205.6 187.5 41.4 82.4 69.9 132.4 116.4 132.4s75-50 116.4-132.4c42.2-83.6 94.6-187.5 206.1-187.5s163.9 103.9 206 187.5c41.4 82.4 70.2 132.4 116.6 132.4v100c-111.5 0-163.8-103.9-206-187.5M12214.7 5225.7c-41.4-82.4-70.1-132.4-116.6-132.4s-75.2 50-116.6 132.6c-42.2 83.4-94.5 187.3-205.9 187.3-111.3 0-163.6-103.9-205.8-187.5-41.4-82.4-70-132.4-116.2-132.4-46.3 0-74.7 50-116.1 132.4-42 83.6-94.1 187.5-205.2 187.5-111.4 0-163.7-103.9-205.7-187.5-41.4-82.4-69.9-132.4-116.2-132.4s-74.6 50-116 132.4c-42 83.6-94.2 187.5-205.3 187.5-111.1 0-163.3-103.9-205.3-187.5-41.2-82.4-69.7-132.4-115.8-132.4-46.3 0-74.6 50-116 132.4-42 83.6-94.34 187.5-205.48 187.5-110.93 0-163.08-104.1-204.88-187.5-41.21-82.4-69.53-132.4-115.43-132.4-46.09 0-74.41 50-115.62 132.4-41.8 83.6-93.95 187.5-204.89 187.5-111.32 0-163.47-104.1-205.47-187.5-41.4-82.4-69.72-132.4-115.82-132.4-46.09 0-74.61 50-115.82 132.4-41.99 83.6-94.14 187.5-205.27 187.5v-100c46.09 0 74.61-50 115.82-132.4 41.99-83.6 94.14-187.5 205.27-187.5 111.14 0 163.29 103.9 205.28 187.5 41.4 82.4 69.72 132.4 116.01 132.4 45.9 0 74.22-50 115.43-132.2 41.8-83.6 93.95-187.7 205.08-187.7 110.94 0 163.09 104.1 204.88 187.5 41.21 82.4 69.54 132.4 115.43 132.4 46.29 0 74.61-50 116.02-132.4 41.96-83.6 94.36-187.5 205.46-187.5 111.1 0 163.3 103.9 205.3 187.5 41.2 82.4 69.7 132.4 115.8 132.4 46.1 0 74.4-50 115.8-132.4 42-83.4 94.2-187.5 205.5-187.5s163.7 103.9 205.7 187.5c41.4 82.4 69.9 132.4 116.2 132.4 46.1 0 74.4-50 115.8-132.4 42-83.4 94.1-187.5 205.5-187.5 111.3 0 163.4 103.9 205.6 187.5 41.4 82.4 69.9 132.4 116.4 132.4s75-50 116.4-132.4c42.2-83.6 94.6-187.5 206.1-187.5s163.9 103.9 206 187.5c41.4 82.4 70.2 132.4 116.6 132.4v100c-111.5 0-163.8-103.9-206-187.5M15639.9 8235.3l481.6-200 482.1 200 482.2-200 482.4 200 483-200 511.9 211.9-57.4 138.6-454.5-188-483 200-482.4-200-482.2 200-482.1-200-481.6 200-480.9-200-453.3 188-57.4-138.6 510.7-211.9 480.9 200M18051.2 7719l-483 200-482.4-200-482.2 200-482.1-200-481.6 200-480.9-200-453.3 188.1-57.4-138.6 510.7-212 480.9 200 481.6-200 482.1 200 482.2-200 482.4 200 483-200 511.9 212-57.4 138.6-454.5-188.1M5099.45 18263.8c-54.49-45.1-87.5-72.5-165.04-72.5-77.53 0-110.35 27.4-164.84 72.5-65.04 53.9-154.1 127.5-318.16 127.5-163.87 0-252.93-73.6-317.78-127.5-54.49-45.1-87.3-72.5-164.65-72.5-77.14 0-109.96 27.4-164.45 72.5-64.84 53.9-153.71 127.5-317.58 127.5-163.86 0-252.93-73.6-317.77-127.5-54.49-45.1-87.3-72.5-164.45-72.5-77.15 0-109.77 27.4-164.07 72.5-65.03 53.9-153.9 127.5-317.57 127.5-163.68 0-252.35-73.8-317.19-127.7-54.1-44.9-86.92-72.3-163.67-72.3-77.15 0-109.96 27.4-164.46 72.5-64.84 53.9-153.71 127.5-317.57 127.5v-239.8c77.14 0 109.96-27.4 164.45-72.5 64.84-53.9 153.71-127.5 317.58-127.5 163.67 0 252.34 73.8 317.18 127.7 54.11 44.9 86.92 72.3 163.68 72.3 77.14 0 109.76-27.4 164.06-72.5 65.04-53.9 153.9-127.5 317.58-127.5 163.86 0 252.73 73.6 317.57 127.5 54.5 45.1 87.31 72.5 164.65 72.5 77.15 0 109.96-27.4 164.46-72.5 64.84-53.9 153.71-127.5 317.57-127.5 163.87 0 252.93 73.6 317.78 127.5 54.49 45.1 87.3 72.5 164.65 72.5 77.54 0 110.54-27.4 165.04-72.5 65.03-53.9 154.1-127.5 317.96-127.5 164.07 0 253.13 73.6 318.17 127.5 54.49 45.1 87.5 72.5 165.04 72.5v239.8c-164.07 0-253.13-73.6-318.17-127.5M4934.41 17712.8c-77.53 0-110.35 27.3-164.84 72.5-65.04 53.9-154.1 127.5-318.16 127.5-163.87 0-252.93-73.6-317.78-127.5-54.49-45.2-87.3-72.5-164.65-72.5-77.14 0-109.96 27.3-164.45 72.5-64.84 53.9-153.71 127.5-317.58 127.5-163.86 0-252.93-73.6-317.77-127.5-54.49-45.2-87.3-72.5-164.45-72.5-77.15 0-109.77 27.3-164.07 72.5-65.03 53.9-153.9 127.5-317.57 127.5-163.68 0-252.35-73.8-317.19-127.7-54.1-45-86.92-72.3-163.67-72.3-77.15 0-109.96 27.3-164.46 72.5-64.84 53.9-153.71 127.5-317.57 127.5v-239.9c77.14 0 109.96-27.3 164.45-72.4 64.84-53.9 153.71-127.6 317.58-127.6 163.67 0 252.34 73.9 317.18 127.8 54.11 44.9 86.92 72.2 163.68 72.2 77.14 0 109.76-27.3 164.06-72.4 65.04-53.9 153.9-127.6 317.58-127.6 163.86 0 252.73 73.7 317.57 127.6 54.5 45.1 87.31 72.4 164.65 72.4 77.15 0 109.96-27.3 164.46-72.4 64.84-53.9 153.71-127.6 317.57-127.6 163.87 0 252.93 73.7 317.78 127.6 54.49 45.1 87.3 72.4 164.65 72.4 77.54 0 110.54-27.3 165.04-72.4 65.03-53.9 154.1-127.6 317.96-127.6 164.07 0 253.13 73.7 318.17 127.6 54.49 45.1 87.5 72.4 165.04 72.4v239.9c-164.07 0-253.13-73.6-318.17-127.5-54.49-45.2-87.5-72.5-165.04-72.5M17083.6 11831c0 147.4-65 225.7-117.3 288.6-46.1 55.5-82.7 99.3-82.7 192.4 0 93.4 36.6 137.5 82.8 193.2 52.2 62.9 117.2 141.2 117.2 288.8h-150c0-93.3-36.5-137.5-82.8-193.1-52.1-62.9-117.2-141.2-117.2-288.9 0-147.2 65.1-225.6 117.4-288.3 46.1-55.6 82.6-99.6 82.6-192.7 0-93.2-36.5-137.1-82.6-192.8-52.3-62.9-117.4-141.2-117.4-288.7 0-147.6 65.1-226.2 117.4-289.1 46.1-55.6 82.6-99.8 82.6-193.1 0-93.4-36.5-137.5-82.6-193.2-52.3-62.9-117.4-141.4-117.4-289 0-147.5 65.1-226 117.2-288.9 46.3-55.7 82.8-99.8 82.8-193.4 0-93.7-36.5-137.9-82.8-193.7-52.1-63.1-117.2-141.6-117.2-289.5 0-147.6 65.1-226.1 117.2-289.2 46.3-55.9 82.8-100 82.8-193.8h150c0 147.9-65 226.4-117.2 289.5-46.2 55.8-82.8 99.8-82.8 193.5 0 93.8 36.6 137.9 82.8 193.8 52.2 63.1 117.2 141.6 117.2 289.4 0 147.7-65 226.2-117.3 289.1-46.1 55.7-82.7 99.8-82.7 193.2 0 93.5 36.6 137.7 82.8 193.3 52.2 62.9 117.2 141.4 117.2 288.9 0 147.5-65 226-117.2 288.9-46.2 55.6-82.8 99.8-82.8 193.3 0 93.4 36.6 137.3 82.8 193 52.2 62.9 117.2 141 117.2 288.5M16604.9 12794h-150c0-93.3-36.5-137.5-82.8-193.1-52.1-62.9-117.2-141.2-117.2-288.9 0-147.2 65.1-225.6 117.4-288.3 46.1-55.6 82.6-99.6 82.6-192.7 0-93.2-36.5-137.1-82.6-192.8-52.3-62.9-117.4-141.2-117.4-288.7 0-147.6 65.1-226.2 117.4-289.1 46.1-55.6 82.6-99.8 82.6-193.1 0-93.4-36.5-137.5-82.6-193.2-52.3-62.9-117.4-141.4-117.4-289 0-147.5 65.1-226 117.2-288.9 46.3-55.7 82.8-99.8 82.8-193.4 0-93.7-36.5-137.9-82.8-193.7-52.1-63.1-117.2-141.6-117.2-289.5 0-147.6 65.1-226.1 117.2-289.2 46.3-55.9 82.8-100 82.8-193.8h150c0 147.9-65 226.4-117.2 289.5-46.3 55.8-82.8 99.8-82.8 193.5 0 93.8 36.5 137.9 82.8 193.8 52.2 63.1 117.2 141.6 117.2 289.4 0 147.7-65 226.2-117.4 289.1-46.1 55.7-82.6 99.8-82.6 193.2 0 93.5 36.5 137.7 82.8 193.3 52.2 62.9 117.2 141.4 117.2 288.9 0 147.5-65 226-117.2 288.9-46.3 55.6-82.8 99.8-82.8 193.3 0 93.4 36.5 137.3 82.8 193 52.2 62.9 117.2 141 117.2 288.5 0 147.4-65 225.7-117.4 288.6-46.1 55.5-82.6 99.3-82.6 192.4 0 93.4 36.5 137.5 82.8 193.2 52.2 62.9 117.2 141.2 117.2 288.8M17781.2 17341.2l320.9 168.8 321-168.8-61.3 357.4 259.7 253.1-358.9 52.2-160.5 325.1-160.4-325.1-358.9-52.2 259.7-253.1-61.3-357.4M18102.1 16641.2c-240 0-434.6-194.6-434.6-434.6 0-240.1 194.6-434.7 434.6-434.7 240.1 0 434.7 194.6 434.7 434.7 0 240-194.6 434.6-434.7 434.6M4063.52 11137.8v-200c252.34 0 457.61 205.3 457.61 457.6 0 252.4-205.27 457.6-457.61 457.6v-200c141.99 0 257.61-115.6 257.61-257.6 0-142-115.62-257.6-257.61-257.6M5792.62 5611.2c263.86 0 478.71-214.8 478.71-478.7h600c0 594.7-483.99 1078.7-1078.71 1078.7v-600M4499.84 10437.8c0-142.2-115.62-257.8-257.61-257.8-142 0-257.62 115.6-257.62 257.8h-200c0-252.4 205.27-457.8 457.62-457.8 252.34 0 457.61 205.4 457.61 457.8h-200M4421.13 9380v200c-252.34 0-457.61-205.3-457.61-457.6 0-252.4 205.27-457.7 457.61-457.7v200c-141.99 0-257.61 115.7-257.61 257.7s115.62 257.6 257.61 257.6M4242.23 8264.7c-252.35 0-457.62-205.2-457.62-457.6h200c0 142 115.62 257.6 257.62 257.6 141.99 0 257.61-115.6 257.61-257.6h200c0 252.4-205.27 457.6-457.61 457.6M4242.23 12453c-142 0-257.62 115.7-257.62 257.6 0 142 115.62 257.7 257.62 257.7 141.99 0 257.61-115.7 257.61-257.7 0-141.9-115.62-257.6-257.61-257.6zm0 715.3c-252.35 0-457.62-205.3-457.62-457.7 0-252.3 205.27-457.6 457.62-457.6 252.34 0 457.61 205.3 457.61 457.6 0 252.4-205.27 457.7-457.61 457.7M14605.5 14632.9c102-77.7 257.6-229.1 257.6-382 0-142-115.6-257.6-257.6-257.6-142.2 0-257.8 115.6-257.8 257.6 0 152.7 155.9 304.3 257.8 382zm0-839.6c252.4 0 457.6 205.2 457.6 457.6 0 332-388.1 578.5-404.7 588.9l-52.9 33.1-52.9-33.1c-16.6-10.4-404.9-256.9-404.9-588.9 0-252.4 205.5-457.6 457.8-457.6M14605.4 13335.3s-357.6-223.6-357.6-504.2c0-197.5 160.1-357.6 357.6-357.6 197.5 0 357.6 160.1 357.6 357.6 0 280.6-357.6 504.2-357.6 504.2M14488.8 6922.8s-357.6-223.6-357.6-504.2c0-197.5 160.1-357.6 357.6-357.6 197.5 0 357.6 160.1 357.6 357.6 0 280.6-357.6 504.2-357.6 504.2M4242.23 6591.9c-142 0-257.62 115.6-257.62 257.6h-200c0-252.3 205.27-457.6 457.62-457.6 252.34 0 457.61 205.3 457.61 457.6 0 252.4-205.27 457.6-457.61 457.6v-200c141.99 0 257.61-115.6 257.61-257.6 0-142-115.62-257.6-257.61-257.6M17884.8 15071.9v-869.3c240.1 0 434.7 194.6 434.7 434.7 0 240-194.6 434.6-434.7 434.6M13311.5 9273.4c0 240-194.6 434.6-434.7 434.6v-869.3c240.1 0 434.7 194.6 434.7 434.7M13746.1 8838.7V9708c-240 0-434.6-194.5-434.6-434.6 0-240.1 194.6-434.7 434.6-434.7M12876.8 8241.8v-869.3c240.1 0 434.7 194.6 434.7 434.7 0 240-194.6 434.6-434.7 434.6M13746.1 7807.2c0 240-194.6 434.6-434.6 434.6v-869.3c240 0 434.6 194.6 434.6 434.7M17667.5 13502.6c0-240 194.6-434.7 434.6-434.7 240.1 0 434.7 194.7 434.7 434.7h-869.3M18319.5 12367.9c-240.1 0-434.7-194.5-434.7-434.6 0-240.1 194.6-434.7 434.7-434.7v869.3M18102.1 10798.6c-240 0-434.6-194.6-434.6-434.6h869.3c0 240-194.6 434.6-434.7 434.6M18534.4 8915.3l-432.3 748.7-432.2-748.7zM1860.66 2242.6 1716.58 1993h288.15zM2248.8 2242.6 2104.73 1993h288.16zM2636.95 2242.6 2492.89 1993h288.14zM3025.11 2242.6 2881.03 1993h288.16zM3413.26 2242.6 3269.19 1993h288.15zM3801.42 2242.6 3657.34 1993h288.14zM4189.57 2242.6 4045.48 1993h288.16zM4577.71 2242.6 4433.64 1993h288.15zM4965.87 2242.6 4821.79 1993h288.16zM5354.02 2242.6 5209.95 1993h288.15zM5742.18 2242.6 5598.1 1993h288.15zM1910.66 1643.5h288.14L2054.74 1893zM1522.51 1643.5h288.15L1666.59 1893zM2298.8 1643.5h288.16L2442.89 1893zM2686.96 1643.5h288.15L2831.03 1893zM3075.11 1643.5h288.16L3219.19 1893zM3463.27 1643.5h288.15L3607.34 1893zM3851.42 1643.5h288.15L3995.5 1893zM4239.57 1643.5h288.15L4383.64 1893zM4627.72 1643.5h288.15L4771.79 1893zM5015.87 1643.5h288.16L5159.95 1893zM5404.03 1643.5h288.15L5548.1 1893zM5936.25 1893l-144.07-249.5h288.14zM10648.7 11359.1l-156.7-271.3h313.3l-156.6 271.3M11118.6 11087.8l-156.7 271.3-156.6-271.3h313.3M11275.2 11359.1l-156.6-271.3h313.2z" transform="matrix(.13333 0 0 -.13333 0 2666.667)"/><path style="fill:#241f20;fill-opacity:1;fill-rule:nonzero;stroke:none" d="m11588.5 11359.1-156.7-271.3h313.3zM11901.7 11359.1l-156.6-271.3h313.3zM12215 11359.1l-156.6-271.3h313.3zM12684.9 11087.8l-156.6 271.3-156.6-271.3h313.2M12841.6 11359.1l-156.7-271.3h313.3zM13154.8 11359.1l-156.6-271.3h313.3zM13468.1 11359.1l-156.6-271.3h313.3zM13781.4 11359.1l-156.6-271.3h313.2zM10648.7 10816.5h313.2l-156.6 271.3zM10492 11087.8l-156.6-271.3h313.3z" transform="matrix(.13333 0 0 -.13333 0 2666.667)"/><path style="fill:#241f20;fill-opacity:1;fill-rule:nonzero;stroke:none" d="m11275.2 10816.5-156.6 271.3-156.7-271.3h313.3" transform="matrix(.13333 0 0 -.13333 0 2666.667)"/><path style="fill:#241f20;fill-opacity:1;fill-rule:nonzero;stroke:none" d="m11588.5 10816.5-156.7 271.3-156.6-271.3zM11901.7 10816.5h.1l-156.7 271.3-156.6-271.3h313.2" transform="matrix(.13333 0 0 -.13333 0 2666.667)"/><path style="fill:#241f20;fill-opacity:1;fill-rule:nonzero;stroke:none" d="m12215 10816.5-156.6 271.3-156.6-271.3zM12215 10816.5h313.3l-156.6 271.3zM12841.6 10816.5l-156.7 271.3-156.6-271.3h313.3" transform="matrix(.13333 0 0 -.13333 0 2666.667)"/><path style="fill:#241f20;fill-opacity:1;fill-rule:nonzero;stroke:none" d="m13154.8 10816.5-156.6 271.3-156.6-271.3zM13468.1 10816.5l-156.6 271.3-156.7-271.3h313.3" transform="matrix(.13333 0 0 -.13333 0 2666.667)"/><path style="fill:#241f20;fill-opacity:1;fill-rule:nonzero;stroke:none" d="m13781.4 10816.5-156.6 271.3-156.7-271.3zM13938 11087.8l-156.6-271.3h313.3zM10492 10545.2h313.3l-156.6 271.3zM10178.8 10545.2h313.2l-156.6 271.3zM10805.3 10545.2h313.3l-156.7 271.3zM11118.6 10545.2h313.2l-156.6 271.3z" transform="matrix(.13333 0 0 -.13333 0 2666.667)"/><path style="fill:#241f20;fill-opacity:1;fill-rule:nonzero;stroke:none" d="M11431.8 10545.2h313.3l-156.6 271.3zM11745.1 10545.2h313.3l-156.7 271.3zM12058.4 10545.2h313.3l-156.7 271.3zM12371.7 10545.2h313.2l-156.6 271.3z" transform="matrix(.13333 0 0 -.13333 0 2666.667)"/><path style="fill:#241f20;fill-opacity:1;fill-rule:nonzero;stroke:none" d="M12684.9 10545.2h313.3l-156.6 271.3zM12998.2 10545.2h313.3l-156.7 271.3zM13311.5 10545.2h313.3l-156.7 271.3zM13624.8 10545.2h313.2l-156.6 271.3zM14094.7 10816.5l-156.7-271.3h313.3zM1789.69 5636.8l286.91 496.9 286.92-496.9zm234.96 646.9-390.82-676.8c-10.74-18.5-10.74-41.6 0-60.1 10.74-18.6 30.47-29.9 51.95-29.9h781.64c21.49 0 41.21 11.3 51.96 29.9 10.74 18.5 10.74 41.6 0 60.1l-390.83 676.8c-21.48 37.1-82.42 37.1-103.9 0M9564.49 10802.6h-900.97v-200h900.97v200M17000.6 13535.6h-1666.2v-200h1666.2v200M9113.91 12618.1c248.63 0 379.1-78.9 379.1-106.1 0-27.1-130.47-105.8-379.1-105.8-248.64 0-378.91 78.7-378.91 105.8 0 27.2 130.27 106.1 378.91 106.1zm379.1-1049.6c0-27.2-130.47-105.9-379.1-105.9-248.64 0-378.91 78.7-378.91 105.9v791.6c5.2-2.7 11.83-4.5 17.29-7 14.52-6.6 29.73-12.7 45.89-18.4 10.23-3.5 20.29-7.1 31.09-10.2 19.56-5.8 39.97-10.6 61.06-15.1 8.4-1.8 16.38-3.8 24.99-5.3 63.12-11.5 130.72-17.9 198.59-17.9s135.42 6.4 198.53 17.8c8.86 1.6 17.08 3.7 25.72 5.5 20.85 4.4 41.04 9.2 60.39 14.9 10.91 3.2 21.08 6.8 31.42 10.4 16.07 5.6 31.2 11.7 45.64 18.3 5.49 2.5 12.16 4.3 17.4 7zm-379.1-225.8c248.04 0 499.02 77.5 499.02 225.8v943.5c0 296.7-997.85 297.1-997.85 0v-943.5c0-148.3 250.97-225.8 498.83-225.8M11632.7 1703.4H6980.31c1.27 2.8 2.08 6.2 3.3 9.1 4.95 11.6 9.14 24.1 13.35 36.8 3.31 9.9 6.87 19.4 9.74 29.8 3.72 13.6 6.58 27.9 9.57 42.2 2.23 10.7 4.82 20.9 6.65 31.9 2.74 16.5 4.5 33.5 6.34 50.5 1.01 9.4 2.52 18.5 3.26 28 2.11 26.7 3.26 53.6 3.26 80.3 0 26.7-1.15 53.6-3.26 80.4-.74 9.4-2.25 18.5-3.26 27.9-1.84 17-3.6 34-6.34 50.5-1.83 11-4.42 21.2-6.65 31.9-2.99 14.3-5.85 28.6-9.57 42.2-2.87 10.5-6.43 19.9-9.74 29.8-4.21 12.7-8.4 25.2-13.35 36.8-1.22 2.9-2.03 6.3-3.3 9.1l4650.79.2c22.3-7.4 80.9-113.7 80.9-308.8 0-195.1-58.6-301.4-79.3-308.6zM6757.27 2012c0 190.5 55.46 295.8 78.89 307.8 3.15-1.4 7.83-8.2 12.1-13.3 3.24-3.8 5.86-5.1 9.48-11 5.71-9.5 11.72-25.1 17.67-39.8 2.92-7.2 5.86-11.6 8.69-20.1 6.26-18.7 11.28-43.8 16.24-68.6 1.88-9.4 4.49-16 6.08-26.3 5.76-37.3 9.44-80.2 9.44-128.7 0-193.9-57.64-299.4-78.71-307.9-22.51 9.1-79.88 114.3-79.88 307.9zm4875.43 428.5H6836.56c-136.91 0-199.22-222-199.22-428.5 0-206.4 62.31-428.5 199.22-428.5h4796.14c136.9 0 199.2 222.1 199.2 428.5 0 206.5-62.3 428.5-199.2 428.5M2077.58 14446.8c245.51 0 378.12-75.2 378.12-106.1 0-30.8-132.61-106-378.12-106-249.42 0-380.08 78.9-380.08 106 0 27.2 130.66 106.1 380.08 106.1zm498.05-2695.9v2589.8c-.2 297.7-998.25 296.5-998.05 0v-2589.8c0-148.5 251.56-226 500-226 247.46 0 498.05 77.5 498.05 226M3602.94 16922.6c-33.04 0-59.83-26.8-59.83-59.9 0-33 26.79-59.8 59.83-59.8 33.05 0 59.83 26.8 59.83 59.8 0 33.1-26.78 59.9-59.83 59.9M3922.61 16922.6c-33.04 0-59.84-26.8-59.84-59.9 0-33 26.8-59.8 59.84-59.8 33.04 0 59.83 26.8 59.83 59.8 0 33.1-26.79 59.9-59.83 59.9M4242.26 16922.6c-33.04 0-59.82-26.8-59.82-59.9 0-33 26.78-59.8 59.82-59.8 33.05 0 59.84 26.8 59.84 59.8 0 33.1-26.79 59.9-59.84 59.9M4561.93 16922.6c-33.05 0-59.83-26.8-59.83-59.9 0-33 26.78-59.8 59.83-59.8 33.04 0 59.84 26.8 59.84 59.8 0 33.1-26.8 59.9-59.84 59.9M4881.59 16802.9c33.05 0 59.83 26.8 59.83 59.8 0 33.1-26.78 59.9-59.83 59.9-33.04 0-59.82-26.8-59.82-59.9 0-33 26.78-59.8 59.82-59.8M3602.94 16602.9c-33.04 0-59.83-26.8-59.83-59.8 0-33.1 26.79-59.9 59.83-59.9 33.05 0 59.83 26.8 59.83 59.9 0 33-26.78 59.8-59.83 59.8M3922.61 16602.9c-33.04 0-59.84-26.8-59.84-59.8 0-33.1 26.8-59.9 59.84-59.9 33.04 0 59.83 26.8 59.83 59.9 0 33-26.79 59.8-59.83 59.8M4242.26 16602.9c-33.04 0-59.82-26.8-59.82-59.8 0-33.1 26.78-59.9 59.82-59.9 33.05 0 59.84 26.8 59.84 59.9 0 33-26.79 59.8-59.84 59.8M4561.93 16602.9c-33.05 0-59.83-26.8-59.83-59.8 0-33.1 26.78-59.9 59.83-59.9 33.04 0 59.84 26.8 59.84 59.9 0 33-26.8 59.8-59.84 59.8M4881.59 16602.9c-33.04 0-59.82-26.8-59.82-59.8 0-33.1 26.78-59.9 59.82-59.9 33.05 0 59.83 26.8 59.83 59.9 0 33-26.78 59.8-59.83 59.8M3602.94 16283.2c-33.04 0-59.83-26.8-59.83-59.8s26.79-59.8 59.83-59.8c33.05 0 59.83 26.8 59.83 59.8s-26.78 59.8-59.83 59.8M3922.61 16283.2c-33.04 0-59.84-26.8-59.84-59.8s26.8-59.8 59.84-59.8c33.04 0 59.83 26.8 59.83 59.8s-26.79 59.8-59.83 59.8M4242.26 16283.2c-33.04 0-59.82-26.8-59.82-59.8s26.78-59.8 59.82-59.8c33.05 0 59.84 26.8 59.84 59.8s-26.79 59.8-59.84 59.8M4561.93 16283.2c-33.05 0-59.83-26.8-59.83-59.8s26.78-59.8 59.83-59.8c33.04 0 59.84 26.8 59.84 59.8s-26.8 59.8-59.84 59.8M4881.59 16283.2c-33.04 0-59.82-26.8-59.82-59.8s26.78-59.8 59.82-59.8c33.05 0 59.83 26.8 59.83 59.8s-26.78 59.8-59.83 59.8M3602.94 15963.6c-33.04 0-59.83-26.8-59.83-59.9 0-33 26.79-59.8 59.83-59.8 33.05 0 59.83 26.8 59.83 59.8 0 33.1-26.78 59.9-59.83 59.9M3922.61 15963.6c-33.04 0-59.84-26.8-59.84-59.9 0-33 26.8-59.8 59.84-59.8 33.04 0 59.83 26.8 59.83 59.8 0 33.1-26.79 59.9-59.83 59.9M4242.26 15963.6c-33.04 0-59.82-26.8-59.82-59.9 0-33 26.78-59.8 59.82-59.8 33.05 0 59.84 26.8 59.84 59.8 0 33.1-26.79 59.9-59.84 59.9M4561.93 15963.6c-33.05 0-59.83-26.8-59.83-59.9 0-33 26.78-59.8 59.83-59.8 33.04 0 59.84 26.8 59.84 59.8 0 33.1-26.8 59.9-59.84 59.9M4881.59 15963.6c-33.04 0-59.82-26.8-59.82-59.9 0-33 26.78-59.8 59.82-59.8 33.05 0 59.83 26.8 59.83 59.8 0 33.1-26.78 59.9-59.83 59.9M3602.94 15643.9c-33.04 0-59.83-26.8-59.83-59.8 0-33.1 26.79-59.9 59.83-59.9 33.05 0 59.83 26.8 59.83 59.9 0 33-26.78 59.8-59.83 59.8M3922.61 15643.9c-33.04 0-59.84-26.8-59.84-59.8 0-33.1 26.8-59.9 59.84-59.9 33.04 0 59.83 26.8 59.83 59.9 0 33-26.79 59.8-59.83 59.8M4242.26 15643.9c-33.04 0-59.82-26.8-59.82-59.8 0-33.1 26.78-59.9 59.82-59.9 33.05 0 59.84 26.8 59.84 59.9 0 33-26.79 59.8-59.84 59.8M4561.93 15643.9c-33.05 0-59.83-26.8-59.83-59.8 0-33.1 26.78-59.9 59.83-59.9 33.04 0 59.84 26.8 59.84 59.9 0 33-26.8 59.8-59.84 59.8M4881.59 15643.9c-33.04 0-59.82-26.8-59.82-59.8 0-33.1 26.78-59.9 59.82-59.9 33.05 0 59.83 26.8 59.83 59.9 0 33-26.78 59.8-59.83 59.8M7401.73 15237.8c-33.04 0-59.82-26.8-59.82-59.9 0-33 26.78-59.8 59.82-59.8 33.05 0 59.84 26.8 59.84 59.8 0 33.1-26.79 59.9-59.84 59.9M7721.4 15237.8c-33.05 0-59.83-26.8-59.83-59.9 0-33 26.78-59.8 59.83-59.8 33.04 0 59.84 26.8 59.84 59.8 0 33.1-26.8 59.9-59.84 59.9M8041.06 15118.1c33.05 0 59.83 26.8 59.83 59.8 0 33.1-26.78 59.9-59.83 59.9-33.04 0-59.82-26.8-59.82-59.9 0-33 26.78-59.8 59.82-59.8M7401.73 14918.1c-33.04 0-59.82-26.8-59.82-59.8 0-33.1 26.78-59.8 59.82-59.8 33.05 0 59.84 26.7 59.84 59.8 0 33-26.79 59.8-59.84 59.8M7721.4 14918.1c-33.05 0-59.83-26.8-59.83-59.8 0-33.1 26.78-59.8 59.83-59.8 33.04 0 59.84 26.7 59.84 59.8 0 33-26.8 59.8-59.84 59.8M8041.06 14918.1c-33.04 0-59.82-26.8-59.82-59.8 0-33.1 26.78-59.8 59.82-59.8 33.05 0 59.83 26.7 59.83 59.8 0 33-26.78 59.8-59.83 59.8M7401.73 14598.5c-33.04 0-59.82-26.8-59.82-59.9 0-33 26.78-59.8 59.82-59.8 33.05 0 59.84 26.8 59.84 59.8 0 33.1-26.79 59.9-59.84 59.9M7721.4 14598.5c-33.05 0-59.83-26.8-59.83-59.9 0-33 26.78-59.8 59.83-59.8 33.04 0 59.84 26.8 59.84 59.8 0 33.1-26.8 59.9-59.84 59.9M8041.06 14598.5c-33.04 0-59.82-26.8-59.82-59.9 0-33 26.78-59.8 59.82-59.8 33.05 0 59.83 26.8 59.83 59.8 0 33.1-26.78 59.9-59.83 59.9M10988.9 13279.9c-33 0-59.8-26.7-59.8-59.8 0-33 26.8-59.8 59.8-59.8 33.1 0 59.9 26.8 59.9 59.8 0 33.1-26.8 59.8-59.9 59.8M10669.3 12960.3c-33.1 0-59.9-26.8-59.9-59.9 0-33 26.8-59.8 59.9-59.8 33 0 59.8 26.8 59.8 59.8 0 33.1-26.8 59.9-59.8 59.9M10988.9 12960.3c-33 0-59.8-26.8-59.8-59.9 0-33 26.8-59.8 59.8-59.8 33.1 0 59.9 26.8 59.9 59.8 0 33.1-26.8 59.9-59.9 59.9M11308.6 12960.3c-33.1 0-59.8-26.8-59.8-59.9 0-33 26.7-59.8 59.8-59.8 33 0 59.8 26.8 59.8 59.8 0 33.1-26.8 59.9-59.8 59.9M10349.6 12640.6c-33 0-59.8-26.8-59.8-59.8 0-33.1 26.8-59.9 59.8-59.9s59.8 26.8 59.8 59.9c0 33-26.8 59.8-59.8 59.8M10669.3 12640.6c-33.1 0-59.9-26.8-59.9-59.8 0-33.1 26.8-59.9 59.9-59.9 33 0 59.8 26.8 59.8 59.9 0 33-26.8 59.8-59.8 59.8M10988.9 12640.6c-33 0-59.8-26.8-59.8-59.8 0-33.1 26.8-59.9 59.8-59.9 33.1 0 59.9 26.8 59.9 59.9 0 33-26.8 59.8-59.9 59.8M11308.6 12640.6c-33.1 0-59.8-26.8-59.8-59.8 0-33.1 26.7-59.9 59.8-59.9 33 0 59.8 26.8 59.8 59.9 0 33-26.8 59.8-59.8 59.8M11628.2 12640.6c-33 0-59.8-26.8-59.8-59.8 0-33.1 26.8-59.9 59.8-59.9 33.1 0 59.9 26.8 59.9 59.9 0 33-26.8 59.8-59.9 59.8M10669.3 12320.9c-33.1 0-59.9-26.7-59.9-59.8 0-33 26.8-59.8 59.9-59.8 33 0 59.8 26.8 59.8 59.8 0 33.1-26.8 59.8-59.8 59.8M10988.9 12320.9c-33 0-59.8-26.7-59.8-59.8 0-33 26.8-59.8 59.8-59.8 33.1 0 59.9 26.8 59.9 59.8 0 33.1-26.8 59.8-59.9 59.8M11308.6 12320.9c-33.1 0-59.8-26.7-59.8-59.8 0-33 26.7-59.8 59.8-59.8 33 0 59.8 26.8 59.8 59.8 0 33.1-26.8 59.8-59.8 59.8M10988.9 12001.3c-33 0-59.8-26.8-59.8-59.8 0-33.1 26.8-59.9 59.8-59.9 33.1 0 59.9 26.8 59.9 59.9 0 33-26.8 59.8-59.9 59.8M15662.1 16775.8c-33 0-59.8-26.8-59.8-59.8 0-33.1 26.8-59.9 59.8-59.9s59.8 26.8 59.8 59.9c0 33-26.8 59.8-59.8 59.8M15981.8 16775.8c-33.1 0-59.9-26.8-59.9-59.8 0-33.1 26.8-59.9 59.9-59.9 33 0 59.8 26.8 59.8 59.9 0 33-26.8 59.8-59.8 59.8M16301.4 16775.8c-33 0-59.8-26.8-59.8-59.8 0-33.1 26.8-59.9 59.8-59.9 33.1 0 59.9 26.8 59.9 59.9 0 33-26.8 59.8-59.9 59.8M16621.1 16775.8c-33.1 0-59.8-26.8-59.8-59.8 0-33.1 26.7-59.9 59.8-59.9 33 0 59.8 26.8 59.8 59.9 0 33-26.8 59.8-59.8 59.8M16940.7 16656.1c33.1 0 59.9 26.8 59.9 59.9 0 33-26.8 59.8-59.9 59.8-33 0-59.8-26.8-59.8-59.8 0-33.1 26.8-59.9 59.8-59.9M15662.1 16456.1c-33 0-59.8-26.7-59.8-59.8 0-33 26.8-59.8 59.8-59.8s59.8 26.8 59.8 59.8c0 33.1-26.8 59.8-59.8 59.8M15981.8 16456.1c-33.1 0-59.9-26.7-59.9-59.8 0-33 26.8-59.8 59.9-59.8 33 0 59.8 26.8 59.8 59.8 0 33.1-26.8 59.8-59.8 59.8M16301.4 16456.1c-33 0-59.8-26.7-59.8-59.8 0-33 26.8-59.8 59.8-59.8 33.1 0 59.9 26.8 59.9 59.8 0 33.1-26.8 59.8-59.9 59.8M16621.1 16456.1c-33.1 0-59.8-26.7-59.8-59.8 0-33 26.7-59.8 59.8-59.8 33 0 59.8 26.8 59.8 59.8 0 33.1-26.8 59.8-59.8 59.8M16940.7 16456.1c-33 0-59.8-26.7-59.8-59.8 0-33 26.8-59.8 59.8-59.8 33.1 0 59.9 26.8 59.9 59.8 0 33.1-26.8 59.8-59.9 59.8M15662.1 16136.5c-33 0-59.8-26.8-59.8-59.9 0-33 26.8-59.8 59.8-59.8s59.8 26.8 59.8 59.8c0 33.1-26.8 59.9-59.8 59.9M15981.8 16136.5c-33.1 0-59.9-26.8-59.9-59.9 0-33 26.8-59.8 59.9-59.8 33 0 59.8 26.8 59.8 59.8 0 33.1-26.8 59.9-59.8 59.9M16301.4 16136.5c-33 0-59.8-26.8-59.8-59.9 0-33 26.8-59.8 59.8-59.8 33.1 0 59.9 26.8 59.9 59.8 0 33.1-26.8 59.9-59.9 59.9M16621.1 16136.5c-33.1 0-59.8-26.8-59.8-59.9 0-33 26.7-59.8 59.8-59.8 33 0 59.8 26.8 59.8 59.8 0 33.1-26.8 59.9-59.8 59.9M16940.7 16136.5c-33 0-59.8-26.8-59.8-59.9 0-33 26.8-59.8 59.8-59.8 33.1 0 59.9 26.8 59.9 59.8 0 33.1-26.8 59.9-59.9 59.9M15662.1 15816.8c-33 0-59.8-26.8-59.8-59.8 0-33.1 26.8-59.9 59.8-59.9s59.8 26.8 59.8 59.9c0 33-26.8 59.8-59.8 59.8M15981.8 15816.8c-33.1 0-59.9-26.8-59.9-59.8 0-33.1 26.8-59.9 59.9-59.9 33 0 59.8 26.8 59.8 59.9 0 33-26.8 59.8-59.8 59.8M16301.4 15816.8c-33 0-59.8-26.8-59.8-59.8 0-33.1 26.8-59.9 59.8-59.9 33.1 0 59.9 26.8 59.9 59.9 0 33-26.8 59.8-59.9 59.8M16621.1 15816.8c-33.1 0-59.8-26.8-59.8-59.8 0-33.1 26.7-59.9 59.8-59.9 33 0 59.8 26.8 59.8 59.9 0 33-26.8 59.8-59.8 59.8M16940.7 15816.8c-33 0-59.8-26.8-59.8-59.8 0-33.1 26.8-59.9 59.8-59.9 33.1 0 59.9 26.8 59.9 59.9 0 33-26.8 59.8-59.9 59.8M15662.1 15497.1c-33 0-59.8-26.7-59.8-59.8 0-33 26.8-59.8 59.8-59.8s59.8 26.8 59.8 59.8c0 33.1-26.8 59.8-59.8 59.8M15981.8 15497.1c-33.1 0-59.9-26.7-59.9-59.8 0-33 26.8-59.8 59.9-59.8 33 0 59.8 26.8 59.8 59.8 0 33.1-26.8 59.8-59.8 59.8M16301.4 15497.1c-33 0-59.8-26.7-59.8-59.8 0-33 26.8-59.8 59.8-59.8 33.1 0 59.9 26.8 59.9 59.8 0 33.1-26.8 59.8-59.9 59.8M16621.1 15497.1c-33.1 0-59.8-26.7-59.8-59.8 0-33 26.7-59.8 59.8-59.8 33 0 59.8 26.8 59.8 59.8 0 33.1-26.8 59.8-59.8 59.8M16940.7 15497.1c-33 0-59.8-26.7-59.8-59.8 0-33 26.8-59.8 59.8-59.8 33.1 0 59.9 26.8 59.9 59.8 0 33.1-26.8 59.8-59.9 59.8M15662.1 15177.5c-33 0-59.8-26.8-59.8-59.8 0-33.1 26.8-59.9 59.8-59.9s59.8 26.8 59.8 59.9c0 33-26.8 59.8-59.8 59.8M15981.8 15177.5c-33.1 0-59.9-26.8-59.9-59.8 0-33.1 26.8-59.9 59.9-59.9 33 0 59.8 26.8 59.8 59.9 0 33-26.8 59.8-59.8 59.8M16301.4 15177.5c-33 0-59.8-26.8-59.8-59.8 0-33.1 26.8-59.9 59.8-59.9 33.1 0 59.9 26.8 59.9 59.9 0 33-26.8 59.8-59.9 59.8M16621.1 15177.5c-33.1 0-59.8-26.8-59.8-59.8 0-33.1 26.7-59.9 59.8-59.9 33 0 59.8 26.8 59.8 59.9 0 33-26.8 59.8-59.8 59.8M16940.7 15177.5c-33 0-59.8-26.8-59.8-59.8 0-33.1 26.8-59.9 59.8-59.9 33.1 0 59.9 26.8 59.9 59.9 0 33-26.8 59.8-59.9 59.8M15662.1 14857.8c-33 0-59.8-26.8-59.8-59.8 0-33.1 26.8-59.8 59.8-59.8s59.8 26.7 59.8 59.8c0 33-26.8 59.8-59.8 59.8M15981.8 14857.8c-33.1 0-59.9-26.8-59.9-59.8 0-33.1 26.8-59.8 59.9-59.8 33 0 59.8 26.7 59.8 59.8 0 33-26.8 59.8-59.8 59.8M16301.4 14857.8c-33 0-59.8-26.8-59.8-59.8 0-33.1 26.8-59.8 59.8-59.8 33.1 0 59.9 26.7 59.9 59.8 0 33-26.8 59.8-59.9 59.8M16621.1 14857.8c-33.1 0-59.8-26.8-59.8-59.8 0-33.1 26.7-59.8 59.8-59.8 33 0 59.8 26.7 59.8 59.8 0 33-26.8 59.8-59.8 59.8M16940.7 14857.8c-33 0-59.8-26.8-59.8-59.8 0-33.1 26.8-59.8 59.8-59.8 33.1 0 59.9 26.7 59.9 59.8 0 33-26.8 59.8-59.9 59.8M15662.1 14538.2c-33 0-59.8-26.8-59.8-59.9 0-33 26.8-59.8 59.8-59.8s59.8 26.8 59.8 59.8c0 33.1-26.8 59.9-59.8 59.9M15981.8 14538.2c-33.1 0-59.9-26.8-59.9-59.9 0-33 26.8-59.8 59.9-59.8 33 0 59.8 26.8 59.8 59.8 0 33.1-26.8 59.9-59.8 59.9M16301.4 14538.2c-33 0-59.8-26.8-59.8-59.9 0-33 26.8-59.8 59.8-59.8 33.1 0 59.9 26.8 59.9 59.8 0 33.1-26.8 59.9-59.9 59.9M16621.1 14538.2c-33.1 0-59.8-26.8-59.8-59.9 0-33 26.7-59.8 59.8-59.8 33 0 59.8 26.8 59.8 59.8 0 33.1-26.8 59.9-59.8 59.9M16940.7 14538.2c-33 0-59.8-26.8-59.8-59.9 0-33 26.8-59.8 59.8-59.8 33.1 0 59.9 26.8 59.9 59.8 0 33.1-26.8 59.9-59.9 59.9M15662.1 14218.5c-33 0-59.8-26.8-59.8-59.8 0-33.1 26.8-59.9 59.8-59.9s59.8 26.8 59.8 59.9c0 33-26.8 59.8-59.8 59.8M15981.8 14218.5c-33.1 0-59.9-26.8-59.9-59.8 0-33.1 26.8-59.9 59.9-59.9 33 0 59.8 26.8 59.8 59.9 0 33-26.8 59.8-59.8 59.8M16301.4 14218.5c-33 0-59.8-26.8-59.8-59.8 0-33.1 26.8-59.9 59.8-59.9 33.1 0 59.9 26.8 59.9 59.9 0 33-26.8 59.8-59.9 59.8M16621.1 14218.5c-33.1 0-59.8-26.8-59.8-59.8 0-33.1 26.7-59.9 59.8-59.9 33 0 59.8 26.8 59.8 59.9 0 33-26.8 59.8-59.8 59.8M16940.7 14218.5c-33 0-59.8-26.8-59.8-59.8 0-33.1 26.8-59.9 59.8-59.9 33.1 0 59.9 26.8 59.9 59.9 0 33-26.8 59.8-59.9 59.8M13586.6 16775.8c-33 0-59.8-26.8-59.8-59.8 0-33.1 26.8-59.9 59.8-59.9s59.8 26.8 59.8 59.9c0 33-26.8 59.8-59.8 59.8M13906.3 16775.8c-33.1 0-59.9-26.8-59.9-59.8 0-33.1 26.8-59.9 59.9-59.9 33 0 59.8 26.8 59.8 59.9 0 33-26.8 59.8-59.8 59.8M14225.9 16775.8c-33 0-59.8-26.8-59.8-59.8 0-33.1 26.8-59.9 59.8-59.9 33.1 0 59.9 26.8 59.9 59.9 0 33-26.8 59.8-59.9 59.8M13266.9 16456.1c-33 0-59.8-26.7-59.8-59.8 0-33 26.8-59.8 59.8-59.8 33.1 0 59.9 26.8 59.9 59.8 0 33.1-26.8 59.8-59.9 59.8M13586.6 16456.1c-33 0-59.8-26.7-59.8-59.8 0-33 26.8-59.8 59.8-59.8s59.8 26.8 59.8 59.8c0 33.1-26.8 59.8-59.8 59.8M13906.3 16456.1c-33.1 0-59.9-26.7-59.9-59.8 0-33 26.8-59.8 59.9-59.8 33 0 59.8 26.8 59.8 59.8 0 33.1-26.8 59.8-59.8 59.8M14225.9 16456.1c-33 0-59.8-26.7-59.8-59.8 0-33 26.8-59.8 59.8-59.8 33.1 0 59.9 26.8 59.9 59.8 0 33.1-26.8 59.8-59.9 59.8M14545.6 16336.5c33 0 59.8 26.8 59.8 59.8 0 33.1-26.8 59.8-59.8 59.8-33.1 0-59.8-26.7-59.8-59.8 0-33 26.7-59.8 59.8-59.8M13266.9 16136.5c-33 0-59.8-26.8-59.8-59.9 0-33 26.8-59.8 59.8-59.8 33.1 0 59.9 26.8 59.9 59.8 0 33.1-26.8 59.9-59.9 59.9M13586.6 16136.5c-33 0-59.8-26.8-59.8-59.9 0-33 26.8-59.8 59.8-59.8s59.8 26.8 59.8 59.8c0 33.1-26.8 59.9-59.8 59.9M13906.3 16136.5c-33.1 0-59.9-26.8-59.9-59.9 0-33 26.8-59.8 59.9-59.8 33 0 59.8 26.8 59.8 59.8 0 33.1-26.8 59.9-59.8 59.9M14225.9 16136.5c-33 0-59.8-26.8-59.8-59.9 0-33 26.8-59.8 59.8-59.8 33.1 0 59.9 26.8 59.9 59.8 0 33.1-26.8 59.9-59.9 59.9M14545.6 16136.5c-33.1 0-59.8-26.8-59.8-59.9 0-33 26.7-59.8 59.8-59.8 33 0 59.8 26.8 59.8 59.8 0 33.1-26.8 59.9-59.8 59.9M13266.9 15816.8c-33 0-59.8-26.8-59.8-59.8 0-33.1 26.8-59.9 59.8-59.9 33.1 0 59.9 26.8 59.9 59.9 0 33-26.8 59.8-59.9 59.8M13586.6 15816.8c-33 0-59.8-26.8-59.8-59.8 0-33.1 26.8-59.9 59.8-59.9s59.8 26.8 59.8 59.9c0 33-26.8 59.8-59.8 59.8M13906.3 15816.8c-33.1 0-59.9-26.8-59.9-59.8 0-33.1 26.8-59.9 59.9-59.9 33 0 59.8 26.8 59.8 59.9 0 33-26.8 59.8-59.8 59.8M14225.9 15816.8c-33 0-59.8-26.8-59.8-59.8 0-33.1 26.8-59.9 59.8-59.9 33.1 0 59.9 26.8 59.9 59.9 0 33-26.8 59.8-59.9 59.8M14545.6 15816.8c-33.1 0-59.8-26.8-59.8-59.8 0-33.1 26.7-59.9 59.8-59.9 33 0 59.8 26.8 59.8 59.9 0 33-26.8 59.8-59.8 59.8M13586.6 15497.1c-33 0-59.8-26.7-59.8-59.8 0-33 26.8-59.8 59.8-59.8s59.8 26.8 59.8 59.8c0 33.1-26.8 59.8-59.8 59.8M13906.3 15497.1c-33.1 0-59.9-26.7-59.9-59.8 0-33 26.8-59.8 59.9-59.8 33 0 59.8 26.8 59.8 59.8 0 33.1-26.8 59.8-59.8 59.8M14225.9 15497.1c-33 0-59.8-26.7-59.8-59.8 0-33 26.8-59.8 59.8-59.8 33.1 0 59.9 26.8 59.9 59.8 0 33.1-26.8 59.8-59.9 59.8M17468.3 5375.6c-33 0-59.8-26.8-59.8-59.8 0-33.1 26.8-59.9 59.8-59.9 33.1 0 59.8 26.8 59.8 59.9 0 33-26.7 59.8-59.8 59.8M17788 5375.6c-33.1 0-59.9-26.8-59.9-59.8 0-33.1 26.8-59.9 59.9-59.9 33 0 59.8 26.8 59.8 59.9 0 33-26.8 59.8-59.8 59.8M18107.6 5375.6c-33 0-59.8-26.8-59.8-59.8 0-33.1 26.8-59.9 59.8-59.9 33.1 0 59.9 26.8 59.9 59.9 0 33-26.8 59.8-59.9 59.8M17148.7 5055.9c-33.1 0-59.9-26.7-59.9-59.8 0-33 26.8-59.8 59.9-59.8 33 0 59.8 26.8 59.8 59.8 0 33.1-26.8 59.8-59.8 59.8M17468.3 5055.9c-33 0-59.8-26.7-59.8-59.8 0-33 26.8-59.8 59.8-59.8 33.1 0 59.8 26.8 59.8 59.8 0 33.1-26.7 59.8-59.8 59.8M17788 5055.9c-33.1 0-59.9-26.7-59.9-59.8 0-33 26.8-59.8 59.9-59.8 33 0 59.8 26.8 59.8 59.8 0 33.1-26.8 59.8-59.8 59.8M18107.6 5055.9c-33 0-59.8-26.7-59.8-59.8 0-33 26.8-59.8 59.8-59.8 33.1 0 59.9 26.8 59.9 59.8 0 33.1-26.8 59.8-59.9 59.8M18427.3 4936.3c33.1 0 59.8 26.8 59.8 59.8 0 33.1-26.7 59.8-59.8 59.8-33 0-59.8-26.7-59.8-59.8 0-33 26.8-59.8 59.8-59.8M17148.7 4736.3c-33.1 0-59.9-26.8-59.9-59.8 0-33.1 26.8-59.9 59.9-59.9 33 0 59.8 26.8 59.8 59.9 0 33-26.8 59.8-59.8 59.8M17468.3 4736.3c-33 0-59.8-26.8-59.8-59.8 0-33.1 26.8-59.9 59.8-59.9 33.1 0 59.8 26.8 59.8 59.9 0 33-26.7 59.8-59.8 59.8M17788 4736.3c-33.1 0-59.9-26.8-59.9-59.8 0-33.1 26.8-59.9 59.9-59.9 33 0 59.8 26.8 59.8 59.9 0 33-26.8 59.8-59.8 59.8M18107.6 4736.3c-33 0-59.8-26.8-59.8-59.8 0-33.1 26.8-59.9 59.8-59.9 33.1 0 59.9 26.8 59.9 59.9 0 33-26.8 59.8-59.9 59.8M18427.3 4736.3c-33 0-59.8-26.8-59.8-59.8 0-33.1 26.8-59.9 59.8-59.9 33.1 0 59.8 26.8 59.8 59.9 0 33-26.7 59.8-59.8 59.8M17148.7 4416.6c-33.1 0-59.9-26.8-59.9-59.8 0-33.1 26.8-59.8 59.9-59.8 33 0 59.8 26.7 59.8 59.8 0 33-26.8 59.8-59.8 59.8M17468.3 4416.6c-33 0-59.8-26.8-59.8-59.8 0-33.1 26.8-59.8 59.8-59.8 33.1 0 59.8 26.7 59.8 59.8 0 33-26.7 59.8-59.8 59.8M17788 4416.6c-33.1 0-59.9-26.8-59.9-59.8 0-33.1 26.8-59.8 59.9-59.8 33 0 59.8 26.7 59.8 59.8 0 33-26.8 59.8-59.8 59.8M18107.6 4416.6c-33 0-59.8-26.8-59.8-59.8 0-33.1 26.8-59.8 59.8-59.8 33.1 0 59.9 26.7 59.9 59.8 0 33-26.8 59.8-59.9 59.8M18427.3 4416.6c-33 0-59.8-26.8-59.8-59.8 0-33.1 26.8-59.8 59.8-59.8 33.1 0 59.8 26.7 59.8 59.8 0 33-26.7 59.8-59.8 59.8M17468.3 4097c-33 0-59.8-26.8-59.8-59.9 0-33 26.8-59.8 59.8-59.8 33.1 0 59.8 26.8 59.8 59.8 0 33.1-26.7 59.9-59.8 59.9M17788 4097c-33.1 0-59.9-26.8-59.9-59.9 0-33 26.8-59.8 59.9-59.8 33 0 59.8 26.8 59.8 59.8 0 33.1-26.8 59.9-59.8 59.9M18107.6 4097c-33 0-59.8-26.8-59.8-59.9 0-33 26.8-59.8 59.8-59.8 33.1 0 59.9 26.8 59.9 59.8 0 33.1-26.8 59.9-59.9 59.9M10609.4 9273.4c-33 0-59.8-26.8-59.8-59.8 0-33.1 26.8-59.9 59.8-59.9 33.1 0 59.9 26.8 59.9 59.9 0 33-26.8 59.8-59.9 59.8M10929.1 9273.4c-33 0-59.8-26.8-59.8-59.8 0-33.1 26.8-59.9 59.8-59.9s59.8 26.8 59.8 59.9c0 33-26.8 59.8-59.8 59.8M11248.8 9273.4c-33.1 0-59.9-26.8-59.9-59.8 0-33.1 26.8-59.9 59.9-59.9 33 0 59.8 26.8 59.8 59.9 0 33-26.8 59.8-59.8 59.8M11568.4 9273.4c-33 0-59.8-26.8-59.8-59.8 0-33.1 26.8-59.9 59.8-59.9 33.1 0 59.9 26.8 59.9 59.9 0 33-26.8 59.8-59.9 59.8M11888.1 9153.7c33 0 59.8 26.8 59.8 59.9 0 33-26.8 59.8-59.8 59.8-33.1 0-59.8-26.8-59.8-59.8 0-33.1 26.7-59.9 59.8-59.9M10609.4 8953.7c-33 0-59.8-26.7-59.8-59.8 0-33 26.8-59.8 59.8-59.8 33.1 0 59.9 26.8 59.9 59.8 0 33.1-26.8 59.8-59.9 59.8M10929.1 8953.7c-33 0-59.8-26.7-59.8-59.8 0-33 26.8-59.8 59.8-59.8s59.8 26.8 59.8 59.8c0 33.1-26.8 59.8-59.8 59.8M11248.8 8953.7c-33.1 0-59.9-26.7-59.9-59.8 0-33 26.8-59.8 59.9-59.8 33 0 59.8 26.8 59.8 59.8 0 33.1-26.8 59.8-59.8 59.8M11568.4 8953.7c-33 0-59.8-26.7-59.8-59.8 0-33 26.8-59.8 59.8-59.8 33.1 0 59.9 26.8 59.9 59.8 0 33.1-26.8 59.8-59.9 59.8M11888.1 8953.7c-33.1 0-59.8-26.7-59.8-59.8 0-33 26.7-59.8 59.8-59.8 33 0 59.8 26.8 59.8 59.8 0 33.1-26.8 59.8-59.8 59.8M10609.4 8634.1c-33 0-59.8-26.8-59.8-59.9 0-33 26.8-59.8 59.8-59.8 33.1 0 59.9 26.8 59.9 59.8 0 33.1-26.8 59.9-59.9 59.9M10929.1 8634.1c-33 0-59.8-26.8-59.8-59.9 0-33 26.8-59.8 59.8-59.8s59.8 26.8 59.8 59.8c0 33.1-26.8 59.9-59.8 59.9M11248.8 8634.1c-33.1 0-59.9-26.8-59.9-59.9 0-33 26.8-59.8 59.9-59.8 33 0 59.8 26.8 59.8 59.8 0 33.1-26.8 59.9-59.8 59.9M11568.4 8634.1c-33 0-59.8-26.8-59.8-59.9 0-33 26.8-59.8 59.8-59.8 33.1 0 59.9 26.8 59.9 59.8 0 33.1-26.8 59.9-59.9 59.9M11248.8 9912.7c-33.1 0-59.9-26.8-59.9-59.8 0-33.1 26.8-59.8 59.9-59.8 33 0 59.8 26.7 59.8 59.8 0 33-26.8 59.8-59.8 59.8M10929.1 9593.1c-33 0-59.8-26.8-59.8-59.9 0-33 26.8-59.8 59.8-59.8s59.8 26.8 59.8 59.8c0 33.1-26.8 59.9-59.8 59.9M11248.8 9593.1c-33.1 0-59.9-26.8-59.9-59.9 0-33 26.8-59.8 59.9-59.8 33 0 59.8 26.8 59.8 59.8 0 33.1-26.8 59.9-59.8 59.9M11568.4 9593.1c-33 0-59.8-26.8-59.8-59.9 0-33 26.8-59.8 59.8-59.8 33.1 0 59.9 26.8 59.9 59.8 0 33.1-26.8 59.9-59.9 59.9M11568.4 7994.8c-33 0-59.8-26.8-59.8-59.9 0-33 26.8-59.8 59.8-59.8 33.1 0 59.9 26.8 59.9 59.8 0 33.1-26.8 59.9-59.9 59.9M11248.8 7994.8c-33.1 0-59.9-26.8-59.9-59.9 0-33 26.8-59.8 59.9-59.8 33 0 59.8 26.8 59.8 59.8 0 33.1-26.8 59.9-59.8 59.9M10929.1 7994.8c-33 0-59.8-26.8-59.8-59.9 0-33 26.8-59.8 59.8-59.8s59.8 26.8 59.8 59.8c0 33.1-26.8 59.9-59.8 59.9M11273.5 7664.8c-8 4.1-15.1 10.3-24.7 10.3-33.1 0-59.9-26.8-59.9-59.8 0-33.1 26.8-59.9 59.9-59.9 33 0 59.8 26.8 59.8 59.9 0 23.3-15.5 39.7-35.1 49.5M11888.1 8634.1c-33.1 0-59.8-26.8-59.8-59.9 0-33 26.7-59.8 59.8-59.8 33 0 59.8 26.8 59.8 59.8 0 33.1-26.8 59.9-59.8 59.9M10609.4 8314.4c-33 0-59.8-26.8-59.8-59.8 0-33.1 26.8-59.8 59.8-59.8 33.1 0 59.9 26.7 59.9 59.8 0 33-26.8 59.8-59.9 59.8M10929.1 8314.4c-33 0-59.8-26.8-59.8-59.8 0-33.1 26.8-59.8 59.8-59.8s59.8 26.7 59.8 59.8c0 33-26.8 59.8-59.8 59.8M11248.8 8314.4c-33.1 0-59.9-26.8-59.9-59.8 0-33.1 26.8-59.8 59.9-59.8 33 0 59.8 26.7 59.8 59.8 0 33-26.8 59.8-59.8 59.8M11568.4 8314.4c-33 0-59.8-26.8-59.8-59.8 0-33.1 26.8-59.8 59.8-59.8 33.1 0 59.9 26.7 59.9 59.8 0 33-26.8 59.8-59.9 59.8M11888.1 8314.4c-33.1 0-59.8-26.8-59.8-59.8 0-33.1 26.7-59.8 59.8-59.8 33 0 59.8 26.7 59.8 59.8 0 33-26.8 59.8-59.8 59.8M10609.4 7994.8c-33 0-59.8-26.8-59.8-59.9 0-33 26.8-59.8 59.8-59.8 33.1 0 59.9 26.8 59.9 59.8 0 33.1-26.8 59.9-59.9 59.9M11888.1 7994.8c-33.1 0-59.8-26.8-59.8-59.9 0-33 26.7-59.8 59.8-59.8 33 0 59.8 26.8 59.8 59.8 0 33.1-26.8 59.9-59.8 59.9M11568.4 7355.4c-33 0-59.8-26.8-59.8-59.8 0-33.1 26.8-59.8 59.8-59.8 33.1 0 59.9 26.7 59.9 59.8 0 33-26.8 59.8-59.9 59.8M11248.8 7355.4c-33.1 0-59.9-26.8-59.9-59.8 0-33.1 26.8-59.8 59.9-59.8 33 0 59.8 26.7 59.8 59.8 0 33-26.8 59.8-59.8 59.8M10929.1 7355.4c-33 0-59.8-26.8-59.8-59.8 0-33.1 26.8-59.8 59.8-59.8s59.8 26.7 59.8 59.8c0 33-26.8 59.8-59.8 59.8M11248.8 6716.1c-33.1 0-59.9-26.8-59.9-59.8 0-33.1 26.8-59.9 59.9-59.9 33 0 59.8 26.8 59.8 59.9 0 33-26.8 59.8-59.8 59.8M11568.4 7035.8c-33 0-59.8-26.8-59.8-59.9 0-33 26.8-59.8 59.8-59.8 33.1 0 59.9 26.8 59.9 59.8 0 33.1-26.8 59.9-59.9 59.9M11248.8 7035.8c-33.1 0-59.9-26.8-59.9-59.9 0-33 26.8-59.8 59.9-59.8 33 0 59.8 26.8 59.8 59.8 0 33.1-26.8 59.9-59.8 59.9M10929.1 7035.8c-33 0-59.8-26.8-59.8-59.9 0-33 26.8-59.8 59.8-59.8s59.8 26.8 59.8 59.8c0 33.1-26.8 59.9-59.8 59.9M10609.4 7675.1c-33 0-59.8-26.8-59.8-59.8 0-33.1 26.8-59.9 59.8-59.9 33.1 0 59.9 26.8 59.9 59.9 0 33-26.8 59.8-59.9 59.8M10929.1 7675.1c-16.5 0-31.5-6.7-42.3-17.5-10.8-10.9-17.5-25.8-17.5-42.3 0-33.1 26.8-59.9 59.8-59.9s59.8 26.8 59.8 59.9c0 16.5-6.7 31.4-17.5 42.3a59.71 59.71 0 0 1-42.3 17.5M11568.4 7675.1c-16.5 0-31.5-6.7-42.3-17.5-10.8-10.9-17.5-25.8-17.5-42.3 0-33.1 26.8-59.9 59.8-59.9 33.1 0 59.9 26.8 59.9 59.9 0 16.5-6.7 31.4-17.6 42.3-10.8 10.8-25.7 17.5-42.3 17.5M11888.1 7675.1c-33.1 0-59.8-26.8-59.8-59.8 0-33.1 26.7-59.9 59.8-59.9 33 0 59.8 26.8 59.8 59.9 0 33-26.8 59.8-59.8 59.8M10609.4 7355.4c-33 0-59.8-26.7-59.8-59.8 0-33 26.8-59.8 59.8-59.8 33.1 0 59.9 26.8 59.9 59.8 0 33.1-26.8 59.8-59.9 59.8M11888.1 7355.4c-33.1 0-59.8-26.7-59.8-59.8 0-33 26.7-59.8 59.8-59.8 33 0 59.8 26.8 59.8 59.8 0 33.1-26.8 59.8-59.8 59.8M2075.87 6853.7l404.34 404.3h.01c139.69 139.7 104.62 388-105.21 473.2-102.49 41.6-220.52 9.8-298.74-68.4l-.4-.4c-127.59 127.6-345.74 109.4-447.49-54.6-71.06-114.5-40.72-265.9 54.58-361.2l392.91-392.9M9113.64 15675.1l147.81 147.8c51.06 51 38.25 141.8-38.46 172.9-37.47 15.2-80.62 3.6-109.21-25l-.14-.1c-46.65 46.6-126.39 40-163.59-20-25.98-41.8-14.88-97.2 19.96-132l143.63-143.6M9222.99 15595.3c-37.47 15.2-80.62 3.6-109.21-25l-.14-.1c-46.65 46.6-126.39 40-163.59-20-25.98-41.8-14.88-97.2 19.96-132l143.63-143.6 147.81 147.8c51.06 51 38.25 141.8-38.46 172.9M9222.99 15194.8c-37.47 15.2-80.62 3.6-109.21-25l-.14-.1c-46.65 46.6-126.39 39.9-163.59-20-25.98-41.9-14.88-97.2 19.96-132l143.63-143.7 147.81 147.8v.1c51.06 51 38.25 141.8-38.46 172.9M9222.99 14794.3c-37.47 15.2-80.62 3.6-109.21-25l-.14-.2c-46.65 46.7-126.39 40-163.59-19.9-25.98-41.9-14.88-97.2 19.96-132l143.63-143.7 147.81 147.8c51.06 51.1 38.25 141.9-38.46 173M9222.99 14393.8c-37.47 15.2-80.62 3.6-109.21-25l-.14-.2c-46.65 46.7-126.39 40-163.59-19.9-25.98-41.9-14.88-97.2 19.96-132l143.63-143.7 147.81 147.8c51.06 51.1 38.25 141.9-38.46 173M9222.99 13993.3c-37.47 15.2-80.62 3.6-109.21-25l-.14-.2c-46.65 46.7-126.39 40-163.59-19.9-25.98-41.9-14.88-97.2 19.96-132.1l143.63-143.6 147.81 147.8c51.06 51.1 38.25 141.8-38.46 173M9222.99 13592.8c-37.47 15.2-80.62 3.6-109.21-25l-.14-.2c-46.65 46.7-126.39 40-163.59-19.9-25.98-41.9-14.88-97.2 19.96-132.1l143.63-143.6 147.81 147.8c51.06 51.1 38.25 141.8-38.46 173M1679.34 9072c38.47 61.9 98.04 100.4 168.16 108.6 8.98.9 17.77 1.5 26.56 1.5 59.57 0 116.6-23.4 159.38-66.2 23.44-23.4 61.33-23.4 84.76 0l.39.4c63.87 63.9 158.4 86.3 233.79 55.1 77.93-31.7 131.45-93.6 147.07-170.1 15.24-74.6-7.81-151.4-61.52-205.1l-362.11-361.9-350.39 350.6c-80.27 80.2-99.61 200.9-46.09 287.1zm354.1-764.9c11.13-11.3 26.36-17.5 42.38-17.5 15.82 0 31.25 6.2 42.38 17.5l404.5 404.3c82.22 82.3 117.57 199.6 94.33 313.7-23.63 116.6-103.71 210.5-219.53 257.6-104.88 42.8-226.95 24.6-321.87-45.7-69.34 50.2-155.47 72.3-241.8 62.7-105.67-12.3-199.22-72.1-256.45-164.4-82.61-133.1-56.05-316.1 63.28-435.2l392.78-393M2077.38 10915.5l373.25-216.6-373.25-215.2-374.22 215.2zm433.01-751.1-433.01-249.7-434.37 249.9v430.4l404.49-232.6c18.36-10.9 41.21-10.9 59.96 0l402.93 232.4zm-987.3 534.3v-568.9c0-21.5 11.52-41.2 30.07-52l494.34-284.3c9.18-5.5 19.53-8.1 29.88-8.1 10.35 0 20.71 2.8 30.08 8.1l492.77 284.3c18.75 10.8 30.08 30.5 30.08 52v568.9c0 21.5-11.33 41.2-29.88 52l-492.97 286.1c-18.36 10.6-41.41 10.6-60.16 0l-494.33-286.1c-18.56-10.8-29.88-30.5-29.88-52M9447.89 7847l-333.4-192.2-334.57 192.4v384.7l334.57 193.4 333.4-193.4zm119.92 454.1L9114.49 8564 8660 8301.1v-523.5l454.49-261.5 453.32 261.7v523.3M9567.81 9808.9l-453.32 263.1L8660 9808.9v-523.3l454.49-261.5 453.32 261.7v523.1M2435.39 4528l-358.59-206.8-360.16 207v344.9l330.27-190c18.36-10.9 41.22-10.5 59.97 0l328.51 189.8zm119.92-34.5v483.4c0 21.4-11.33 41.2-29.88 51.9-18.75 10.6-41.41 10.6-60.16 0l-388.47-224.4-390.24 224.4c-18.36 10.9-41.21 10.6-59.96 0-18.55-10.7-29.88-30.5-29.88-51.9v-483.4c0-21.5 11.52-41.3 30.08-52l420.11-241.6c9.18-5.5 19.54-8 29.89-8 10.35 0 20.7 2.7 30.08 8l418.55 241.6c18.55 10.7 29.88 30.5 29.88 52M6615.19 14364.6l-284.48 492.9 284.48 494.4h-568.96l-284.47-494.4 284.47-492.9h568.96M7605.51 6436.4v-244.5h-244.53v-200h244.53v-244.3h200v244.3h244.33v200h-244.33v244.5h-200M15956.7 3505.8v342.3h342.4v100h-342.4v342.4h-100v-342.4h-342.4v-100h342.4v-342.3h100M9346.72 7071.2l-232.81-232.9-232.82 232.9-70.7-70.7 232.82-232.9-232.82-232.9 70.7-70.7 232.82 232.9 232.81-232.9 70.7 70.7-232.83 232.9 232.83 232.9-70.7 70.7M15134.4 9597.2l-171.4-171.5-171.4 171.5-212.1-212.1 171.5-171.5-171.5-171.5 212.1-212.1 171.4 171.4 171.4-171.4 212.1 212.1-171.4 171.5 171.4 171.5-212.1 212.1M3414.69 5931.9v-80h1655.27v80H3414.69M3472.5 5628.8h1539.65v80.1H3472.5v-80.1M3530.31 5405.8h1423.83v80H3530.31v-80M3588.13 5182.5h1308.2v80.1h-1308.2v-80.1M3645.94 4959.5h1192.58v80.1H3645.94v-80.1M3703.75 4736.4H4780.7v80.1H3703.75v-80.1M3761.76 4513.4h961.13v80.1h-961.13v-80.1M3819.57 4290.3h845.51v80.1h-845.51v-80.1M3877.38 4067.3h729.89v80.1h-729.89v-80.1M3935.2 3844h614.06v80.1H3935.2V3844M3993.01 3621h498.44v80.1h-498.44V3621M4050.82 3397.9h382.81v80.1h-382.81v-80.1M4108.63 3174.9h267.19v80.1h-267.19v-80.1M4166.64 2951.9h151.37v80h-151.37v-80M9767.62 16619.2v-80h2442.58v80H9767.62M9926.02 16280.8h2125.78v80H9926.02v-80M10084.6 16022.6h1808.6v80h-1808.6v-80M10243.2 15764.2h1491.4v80h-1491.4v-80M10401.6 15505.8h1174.6v80h-1174.6v-80M10560.2 15247.6h857.4v80h-857.4v-80M10718.8 14989.2h540.4v80h-540.4v-80M10877.2 14730.8h223.4v80h-223.4v-80M6864.49 13595.2l816.59-473.8-816.59-471.3-819.33 471.3zm59.96-1991.5v942.4l816.41 471.2v-942.4zM5985 13017.5l819.53-471.4v-942.6L5985 12075.1zm-119.92 103.7v-1080.9c0-21.4 11.52-41.2 30.08-51.9l939.45-540.6c9.18-5.5 19.53-8 29.88-8 10.35 0 20.71 2.7 30.08 8l936.33 540.6c18.55 10.7 29.88 30.5 29.88 51.9v1080.9c0 21.5-11.33 41.2-29.88 51.9l-936.33 543.4c-18.36 10.6-41.41 10.6-60.16 0l-939.45-543.4c-18.55-10.7-29.88-30.4-29.88-51.9M6572.89 4366.9l370.7-240 371.1 240 370.9-240 371.29 240 371.09-240 370.31 240 371.29-240 370.9 240 371.29-240 371.64 240 371.1-240 372.1 240 372.7-240 399.8 257.6-54.3 84-345.5-222.5-372.7 240-372.1-240-371.1 240-371.64-240-371.29 240-370.9-240-371.29 240-370.31-240-371.09 240-371.29-240-370.9 240-371.1-240-370.7 240-371.29-240-343.55 222.5-54.3-84 397.85-257.6 371.29 240M11399.3 3837.6l-372.7 240-372.1-239.8-371.1 239.8-371.64-239.8-371.29 239.8-370.9-239.8-371.29 239.8-370.31-239.8-371.09 239.8-371.29-239.8-370.9 239.8-371.1-239.8-370.7 239.8-371.29-239.8-343.55 222.3-54.3-84 397.85-257.4 371.29 239.8 370.7-239.8 371.1 239.8 370.9-239.8 371.29 239.8 371.09-239.8 370.31 239.8 371.29-239.8 370.9 239.8 371.29-239.8 371.64 239.8 371.1-239.8 372.1 239.8 372.7-239.7 399.8 257.3-54.3 84-345.5-222.5M11399.3 3429.4l-372.7 240-372.1-240-371.1 240-371.64-240-371.29 240-370.9-240-371.29 240-370.31-240-371.09 240-371.29-240-370.9 240-371.1-240-370.7 240-371.29-240-343.55 222.5-54.3-84 397.85-257.6 371.29 240 370.7-240 371.1 240 370.9-240 371.29 240 371.09-240 370.31 240 371.29-240 370.9 240 371.29-240 371.64 240 371.1-240 372.1 240 372.7-240 399.8 257.6-54.3 84-345.5-222.5M11399.3 3021.2l-372.7 240-372.1-240-371.1 240-371.64-240-371.29 240-370.9-240-371.29 240-370.31-240-371.09 240-371.29-240-370.9 240-371.1-240-370.7 240-371.29-240-343.55 222.5-54.3-84 397.85-257.6 371.29 240 370.7-240 371.1 240 370.9-240 371.29 240 371.09-240 370.31 240 371.29-240 370.9 240 371.29-240 371.64 240 371.1-240 372.1 240 372.7-240 399.8 257.6-54.3 84-345.5-222.5M18311.6 3048.5c-43.8-46.8-78.4-83.9-149.8-83.9-71.5 0-106.1 37.1-149.8 83.9-48.1 51.8-108.1 116.1-222.9 116.1-114.6 0-174.4-64.3-222.5-115.9-43.7-47-78.3-84.1-149.6-84.1-70.9 0-105.2 37.1-148.8 83.9-48 51.8-107.6 116.1-222.3 116.1-114.8 0-174.6-64.3-222.6-116.1-43.6-46.8-77.9-83.9-149-83.9s-105.5 37.1-149.1 83.9c-48 51.8-107.6 116.1-222.2 116.1-114.7 0-174.2-64.3-222.3-116.1-43.4-46.8-77.7-83.9-148.6-83.9-71.1 0-105.5 37.1-149.1 83.9-48 51.8-107.6 116.1-222.2 116.1-114.5 0-174-64.3-221.9-116.1-43.4-46.8-77.7-83.9-148.4-83.9-70.9 0-105.3 37.1-148.9 83.9-48 51.8-107.6 116.1-222.2 116.1-114.7 0-174.2-64.3-222.3-116.1-43.5-46.8-77.9-83.9-149-83.9-70.9 0-105.3 37.1-148.6 83.9-48.1 51.8-107.7 116.1-222.3 116.1-114.7 0-174.2-64.3-222.3-116.1-43.5-46.8-77.9-83.9-148.8-83.9s-105.3 37.1-148.6 83.9c-47.9 51.8-107.7 116.1-222.1 116.1-114.7 0-174.2-64.3-222.3-116.1-43.5-46.8-77.9-83.9-149-83.9-70.9 0-105.3 37.1-148.6 83.9-47.9 51.8-107.6 116.1-222.1 116.1v-100c70.9 0 105.3-37.2 148.6-84 47.9-51.8 107.6-116 222.1-116 114.7 0 174.4 64.2 222.5 116 43.5 46.8 77.9 84 148.8 84s105.3-37.2 148.6-84c47.9-51.8 107.6-116 222.1-116 114.6 0 174.2 64.2 222.3 116 43.5 46.8 77.9 84 148.8 84s105.3-37.2 148.8-84c48.1-51.8 107.6-116 222.1-116 114.6 0 174.4 64.2 222.4 116 43.6 46.8 78 84 148.9 84s105.2-37.2 148.8-84c48.1-51.8 107.6-116 222.3-116 114.4 0 174 64.2 221.8 116 43.4 46.8 77.8 84 148.5 84 70.9 0 105.3-37.2 148.8-84 48.1-51.8 107.8-116 222.5-116 114.4 0 174 64.2 222 116 43.6 46.8 78 84 148.9 84s105.2-37.2 148.8-84c48-51.8 107.8-116 222.5-116 114.6 0 174.4 64.2 222.2 116 43.8 46.8 78.1 84 149.4 84 70.9 0 105.3-37.2 148.9-84 48-51.8 107.6-116 222.2-116 114.9 0 174.6 64.2 222.9 116 43.5 46.8 78.1 84 149.2 84 71.5 0 106.1-37.2 149.8-84 48.1-51.8 108-116 222.9-116 114.8 0 174.8 64.2 222.8 116 43.8 46.8 78.3 84 149.8 84v100c-114.8 0-174.8-64.3-222.8-116.1M18311.6 2640.3c-43.8-46.8-78.4-84-149.8-84-71.5 0-106.1 37.2-149.8 84-48.1 51.8-108.1 116-222.9 116-114.6 0-174.4-64.2-222.5-115.8-43.7-47-78.3-84.2-149.6-84.2-70.9 0-105.2 37.2-148.8 84-48 51.8-107.6 116-222.3 116-114.8 0-174.6-64.2-222.6-116-43.6-46.8-77.9-84-149-84s-105.5 37.2-149.1 84c-48 51.8-107.6 116-222.2 116-114.7 0-174.2-64.2-222.3-116-43.4-46.8-77.7-84-148.6-84-71.1 0-105.5 37.2-149.1 84-48 51.8-107.6 116-222.2 116-114.5 0-174-64.2-221.9-116-43.4-46.8-77.7-84-148.4-84-70.9 0-105.3 37.2-148.9 84-48 51.8-107.6 116-222.2 116-114.7 0-174.2-64.2-222.3-116-43.5-46.8-77.9-84-149-84-70.9 0-105.3 37.2-148.6 84-48.1 51.8-107.7 116-222.3 116-114.7 0-174.2-64.2-222.3-116-43.5-46.8-77.9-84-148.8-84s-105.3 37.2-148.6 84c-47.9 51.8-107.7 116-222.1 116-114.7 0-174.2-64.2-222.3-116-43.5-46.8-77.9-84-149-84-70.9 0-105.3 37.2-148.6 84-47.9 51.8-107.6 116-222.1 116v-100c70.9 0 105.3-37.1 148.6-83.9 47.9-51.8 107.6-116.1 222.1-116.1 114.7 0 174.4 64.3 222.5 116.1 43.5 46.8 77.9 83.9 148.8 83.9s105.3-37.1 148.6-83.9c47.9-51.8 107.6-116.1 222.1-116.1 114.6 0 174.2 64.3 222.3 116.1 43.5 46.8 77.9 83.9 148.8 83.9s105.3-37.1 148.8-83.9c48.1-51.8 107.6-116.1 222.1-116.1 114.6 0 174.4 64.3 222.4 116.1 43.6 46.8 78 83.9 148.9 83.9s105.2-37.1 148.8-83.9c48.1-51.8 107.6-116.1 222.3-116.1 114.4 0 174 64.3 221.8 116.1 43.4 46.8 77.8 83.9 148.5 83.9 70.9 0 105.3-37.1 148.8-83.9 48.1-51.8 107.8-116.1 222.5-116.1 114.4 0 174 64.3 222 116.1 43.6 46.8 78 83.9 148.9 83.9s105.2-37.1 148.8-83.9c48-51.8 107.8-116.1 222.5-116.1 114.6 0 174.4 64.3 222.2 116.1 43.8 46.8 78.1 83.9 149.4 83.9 70.9 0 105.3-37.1 148.9-83.9 48-51.8 107.6-116.1 222.2-116.1 114.9 0 174.6 64.3 222.9 116.1 43.5 46.8 78.1 83.9 149.2 83.9 71.5 0 106.1-37.1 149.8-83.9 48.1-51.8 108-116.1 222.9-116.1 114.8 0 174.8 64.3 222.8 116.1 43.8 46.8 78.3 83.9 149.8 83.9v100c-114.8 0-174.8-64.2-222.8-116M18311.6 2232.1c-43.8-46.8-78.4-84-149.8-84-71.5 0-106.1 37.2-149.8 84-48.1 51.8-108.1 116-222.9 116-114.6 0-174.4-64.2-222.5-115.8-43.7-47-78.3-84.2-149.6-84.2-70.9 0-105.2 37.2-148.8 84-48 51.8-107.6 116-222.3 116-114.8 0-174.6-64.2-222.6-116-43.6-46.8-77.9-84-149-84s-105.5 37.2-149.1 84c-48 51.8-107.6 116-222.2 116-114.7 0-174.2-64.2-222.3-116-43.4-46.8-77.7-84-148.6-84-71.1 0-105.5 37.2-149.1 84-48 51.8-107.6 116-222.2 116-114.5 0-174-64.2-221.9-116-43.4-46.8-77.7-84-148.4-84-70.9 0-105.3 37.2-148.9 84-48 51.8-107.6 116-222.2 116-114.7 0-174.2-64.2-222.3-116-43.5-46.8-77.9-84-149-84-70.9 0-105.3 37.2-148.6 84-48.1 51.8-107.7 116-222.3 116-114.7 0-174.2-64.2-222.3-116-43.5-46.8-77.9-84-148.8-84s-105.3 37.2-148.6 84c-47.9 51.8-107.7 116-222.1 116-114.7 0-174.2-64.2-222.3-116-43.5-46.8-77.9-84-149-84-70.9 0-105.3 37.2-148.6 84-47.9 51.8-107.6 116-222.1 116v-100c70.9 0 105.3-37.1 148.6-83.9 47.9-51.8 107.6-116.1 222.1-116.1 114.7 0 174.4 64.3 222.5 116.1 43.5 46.8 77.9 83.9 148.8 83.9s105.3-37.1 148.6-83.9c47.9-51.8 107.6-116.1 222.1-116.1 114.6 0 174.2 64.3 222.3 116.1 43.5 46.8 77.9 83.9 148.8 83.9s105.3-37.1 148.8-83.9c48.1-51.8 107.6-116.1 222.1-116.1 114.6 0 174.4 64.3 222.4 116.1 43.6 46.8 78 83.9 148.9 83.9s105.2-37.1 148.8-83.9c48.1-51.8 107.6-116.1 222.3-116.1 114.4 0 174 64.3 221.8 116.1 43.4 46.8 77.8 83.9 148.5 83.9 70.9 0 105.3-37.1 148.8-83.9 48.1-51.8 107.8-116.1 222.5-116.1 114.4 0 174 64.3 222 116.1 43.6 46.8 78 83.9 148.9 83.9s105.2-37.1 148.8-83.9c48-51.8 107.8-116.1 222.5-116.1 114.6 0 174.4 64.3 222.2 116.1 43.8 46.8 78.1 83.9 149.4 83.9 70.9 0 105.3-37.1 148.9-83.9 48-51.8 107.6-116.1 222.2-116.1 114.9 0 174.6 64.3 222.9 116.1 43.5 46.8 78.1 83.9 149.2 83.9 71.5 0 106.1-37.1 149.8-83.9 48.1-51.8 108-116.1 222.9-116.1 114.8 0 174.8 64.3 222.8 116.1 43.8 46.8 78.3 83.9 149.8 83.9v100c-114.8 0-174.8-64.2-222.8-116M18311.6 1823.7c-43.8-46.8-78.4-84-149.8-84-71.5 0-106.1 37.2-149.8 84-48.1 51.8-108.1 116-222.9 116-114.6 0-174.4-64.2-222.5-115.8-43.7-47-78.3-84.2-149.6-84.2-70.9 0-105.2 37.2-148.8 84-48 51.8-107.6 116-222.3 116-114.8 0-174.6-64.2-222.6-116-43.6-46.8-77.9-84-149-84s-105.5 37.2-149.1 84c-48 51.8-107.6 116-222.2 116-114.7 0-174.2-64.2-222.3-116-43.4-46.8-77.7-84-148.6-84-71.1 0-105.5 37.2-149.1 84-48 51.8-107.6 116-222.2 116-114.5 0-174-64.2-221.9-116-43.4-46.8-77.7-84-148.4-84-70.9 0-105.3 37.2-148.9 84-48 51.8-107.6 116-222.2 116-114.7 0-174.2-64.2-222.3-116-43.5-46.8-77.9-84-149-84-70.9 0-105.3 37.2-148.6 84-48.1 51.8-107.7 116-222.3 116-114.7 0-174.2-64.2-222.3-116-43.5-46.8-77.9-84-148.8-84s-105.3 37.2-148.6 84c-47.9 51.8-107.7 116-222.1 116-114.7 0-174.2-64.2-222.3-116-43.5-46.8-77.9-84-149-84-70.9 0-105.3 37.2-148.6 84-47.9 51.8-107.6 116-222.1 116v-100c70.9 0 105.3-37.1 148.6-83.9 47.9-51.8 107.6-116.1 222.1-116.1 114.7 0 174.4 64.3 222.5 116.1 43.5 46.8 77.9 83.9 148.8 83.9s105.3-37.1 148.6-83.9c47.9-51.8 107.6-116.1 222.1-116.1 114.6 0 174.2 64.3 222.3 116.1 43.5 46.8 77.9 83.9 148.8 83.9s105.3-37.1 148.8-83.9c48.1-51.8 107.6-116.1 222.1-116.1 114.6 0 174.4 64.3 222.4 116.1 43.6 46.8 78 83.9 148.9 83.9s105.2-37.1 148.8-83.9c48.1-51.8 107.6-116.1 222.3-116.1 114.4 0 174 64.3 221.8 116.1 43.4 46.8 77.8 83.9 148.5 83.9 70.9 0 105.3-37.1 148.8-83.9 48.1-51.8 107.8-116.1 222.5-116.1 114.4 0 174 64.3 222 116.1 43.6 46.8 78 83.9 148.9 83.9s105.2-37.1 148.8-83.9c48-51.8 107.8-116.1 222.5-116.1 114.6 0 174.4 64.3 222.2 116.1 43.8 46.8 78.1 83.9 149.4 83.9 70.9 0 105.3-37.1 148.9-83.9 48-51.8 107.6-116.1 222.2-116.1 114.9 0 174.6 64.3 222.9 116.1 43.5 46.8 78.1 83.9 149.2 83.9 71.5 0 106.1-37.1 149.8-83.9 48.1-51.8 108-116.1 222.9-116.1 114.8 0 174.8 64.3 222.8 116.1 43.8 46.8 78.3 83.9 149.8 83.9v100c-114.8 0-174.8-64.2-222.8-116M6849.45 6834.1h80.08v1886.5h-80.08V6834.1M6613.52 7004.2h80.07v1546.3h-80.07V7004.2M6377.77 7174.3h80.08v1206.1h-80.08V7174.3M6142.03 7344.4h80.08v865.9h-80.08v-865.9M5906.09 7514.6h80.08v525.5h-80.08v-525.5M7085.2 7004.2h80.07v1546.3h-80.07V7004.2M7320.94 7174.3h80.08v1206.1h-80.08V7174.3M7556.88 7344.4h80.07v865.9h-80.07v-865.9M7792.62 8040.1v-525.5h80.08v525.5h-80.08M7330.7 16051.9h80.08v2364.6h-80.08v-2364.6M7035.2 16116.7h80.07v2235.2h-80.07v-2235.2M6739.49 16222.6h80.08v2023.2h-80.08v-2023.2M6443.98 16478.4h80.08v1511.5h-80.08v-1511.5M6148.48 16904.8h80.07v658.8h-80.07v-658.8M7626.21 16116.7h80.08v2235.2h-80.08v-2235.2M7921.91 16222.6h80.08v2023.2h-80.08v-2023.2M8217.42 16478.4h80.08v1511.5h-80.08v-1511.5M8512.93 17563.6v-658.8h80.08v658.8h-80.08M13741.4 5219.6h80.1v400h-80.1v-400M13741.4 3733.3h80.1v400h-80.1v-400M13505.5 5168.1h80.1v400h-80.1v-400M13505.5 3784.9h80.1v400h-80.1v-400M13269.8 5083.7h80v400h-80v-400M13269.8 3869.2h80v400h-80v-400M13034 4879.4h80.1v400h-80.1v-400M13034 4073.5h80.1v400h-80.1v-400M12798.1 4413.6h80.1v525.6h-80.1v-525.6M13977.2 3784.9h80.1v400h-80.1v-400M13977.2 5168.1h80.1v400h-80.1v-400M14212.9 3869.2h80.1v400h-80.1v-400M14212.9 5083.7h80.1v400h-80.1v-400M14448.9 4073.5h80v400h-80v-400M14448.9 4879.4h80v400h-80v-400M14684.6 4939.2v-525.6h80.1v525.6h-80.1M15594.2 12029.4l-56.7 56.6-246.8-246.8-246.9 246.8-56.7-56.6 303.6-303.5 303.5 303.5" transform="matrix(.13333 0 0 -.13333 0 2666.667)"/><path style="fill:#241f20;fill-opacity:1;fill-rule:nonzero;stroke:none" d="m15290.7 11490.9-246.9 246.7-56.7-56.6 303.6-303.4 303.5 303.4-56.7 56.6-246.8-246.7" transform="matrix(.13333 0 0 -.13333 0 2666.667)"/><path style="fill:#241f20;fill-opacity:1;fill-rule:nonzero;stroke:none" d="m15290.7 11142.5-246.9 246.9-56.7-56.7 303.6-303.5 303.5 303.5-56.7 56.7-246.8-246.9" transform="matrix(.13333 0 0 -.13333 0 2666.667)"/><path style="fill:#241f20;fill-opacity:1;fill-rule:nonzero;stroke:none" d="m15290.7 10794.2-246.9 246.9-56.7-56.6 303.6-303.5 303.5 303.5-56.7 56.6-246.8-246.9" transform="matrix(.13333 0 0 -.13333 0 2666.667)"/><path style="fill:#241f20;fill-opacity:1;fill-rule:nonzero;stroke:none" d="m15290.7 10446-246.9 246.7-56.7-56.7 303.6-303.3 303.5 303.3-56.7 56.7-246.8-246.7M13434.6 14663.6h-1072.5l-213.6 213.7h1072.2zm56.7-1185.8h-1105.7v1105.7h1105.7zm-1399.5 1342.8 213.7-213.7v-1072.4l-213.7 213.8zm-47.5 134.4c-2.6-.5-5.3.4-7.7-.8-1.3-.5-1.8-1.8-3-2.4-3.6-1.9-6.1-4.4-9-7.3-2.9-2.9-5.4-5.4-7.3-9-.6-1.2-1.9-1.7-2.4-3-1-2.3-.2-4.9-.7-7.3-.6-2.8-2.4-5-2.4-7.9v-1185.6c0-10.5 4.3-20.7 11.7-28.3l293.7-293.9c7.6-7.6 18-11.7 28.3-11.7h1185.8c22.1 0 40 17.9 40 40v1185.7c0 1.3-1.2 2-1.3 3.2-.7 9.2-3.6 18.2-10.4 25.2l-293.9 293.7c-7.7 7.4-17.8 11.7-28.4 11.7h-1185.5c-2.7 0-4.9-1.7-7.5-2.3M15523.9 5947.8h80V7053h-80V5947.8M15745 5947.8h80V7053h-80V5947.8M15966.1 5947.8h80V7053h-80V5947.8M16187.1 5947.8h80.1V7053h-80.1V5947.8M16408.2 5947.8h80.1V7053h-80.1V5947.8M16629.1 7053V5947.8h80.1V7053h-80.1M7512.54 9460.6h-1025.2v1025.2h1025.2zm-164.45 1105.3-193.75 193.8h107.81l193.75-193.8zm-220.92 0-193.88 193.8h107.76l193.75-193.8zm-221.09 0-193.88 193.8h107.77l193.89-193.8zm-221.09 0-193.89 193.8h107.78l193.88-193.8zm-221.08 0-28.39 28.4-165.51 165.4h107.77l193.89-193.8zm-56.64-56.6v-107.8l-193.95 193.9v107.7zm-193.95-469.4 193.95-193.9v-107.8l-193.95 193.9zm193.95 27.2v-107.8l-193.95 193.9v107.8zm-193.95 307.2v107.8l193.95-193.9v-107.8zm0-663.3v107.8l193.95-193.9v-107.7zm1367.58 843.2-273.83 273.8c-7.62 7.4-17.77 11.8-28.32 11.8H6173.28c-2.73 0-4.91-1.8-7.52-2.3-2.58-.6-5.24.2-7.71-.9-1.22-.5-1.79-1.8-2.93-2.4-3.64-1.9-6.28-4.5-9.16-7.4-2.8-2.9-5.31-5.4-7.17-8.9-.61-1.1-1.92-1.7-2.42-3-1-2.3-.22-4.9-.74-7.4-.58-2.7-2.39-4.9-2.39-7.8V9694.4c0-10.5 4.3-20.7 11.72-28.3l274.02-273.8c7.62-7.6 17.97-11.7 28.32-11.7h1105.28c22.07 0 40.04 17.9 40.04 40v1105.3c0 1.2-1.19 1.9-1.3 3.1-.73 9.3-3.61 18.3-10.42 25.2M15866.6 5497.6v-289.5h-289.5c18.5 151.7 137.9 271.1 289.5 289.5zm369.6-289.5h-289.5v289.5c151.7-18.4 271.1-137.8 289.5-289.5zm-289.5-369.6V5128h289.5c-18.4-151.6-137.8-271.1-289.5-289.5zm-369.6 289.5h289.5v-289.5c-151.6 18.4-271 137.9-289.5 289.5zm329.6-373.6c228.1 0 413.7 185.5 413.7 413.7 0 228.1-185.6 413.6-413.7 413.6s-413.7-185.5-413.7-413.6c0-228.2 185.6-413.7 413.7-413.7M18142.2 6331.7v291.6h291.6c-18.1-152.1-139.4-273.4-291.6-291.6zm-80.1 661.4v-289.7h-291.6c18.4 151.2 139.5 271.5 291.6 289.7zm40.1 82.4c-228.3 0-414.1-185-414.1-412.1 0-228.3 185.8-414.1 414.1-414.1s414.1 185.8 414.1 414.1c0 227.1-185.8 412.1-414.1 412.1M2076.6 16942.9c352.35 0 598.05-139.3 598.05-264.1 0-24.2-7.03-46.5-21.88-68.7-76.36-116.1-313.28-197.3-576.17-197.3-260.74 0-496.29 79.7-576.37 199.8-14.45 21.5-21.68 43.9-21.68 66.2 0 124.8 245.71 264.1 598.05 264.1zm0-1706.5-492.38 1180.5c1.24-.6 2.82-1.1 4.08-1.7 28.74-14.5 59.99-27.6 93.19-39.3 9.67-3.4 20.1-6.1 30.11-9.2 25.06-8 50.78-15.2 77.73-21.4 13.16-3.1 26.47-5.8 40.03-8.4 26.81-5.2 54.27-9.5 82.42-13 12.88-1.6 25.42-3.4 38.53-4.7 41.23-3.8 83.23-6.4 126.29-6.4 44.04 0 86.73 2.5 128.52 6.4 12.73 1.2 24.84 3 37.31 4.5 29.22 3.5 57.64 7.9 85.28 13.2 12.77 2.5 25.29 5 37.69 7.9 28.41 6.5 55.5 14.1 81.72 22.5 8.68 2.7 17.77 5.1 26.2 8.1 34.21 12 66.4 25.5 95.84 40.6l1.58.7zm-660.15 1323.1 614.06-1472.1c7.62-18.5 25.97-30.7 46.09-30.7 20.12 0 38.28 12.2 46.1 30.7l617.96 1476 .03 1c21.75 35.6 33.96 73.9 33.96 114.4 0 204.1-306.64 364.1-698.05 364.1-391.4 0-698.05-160-698.05-364.1 0-34.6 11.7-69.8 31.39-105.6l.06-.3.06.1c2.36-4.3 3.7-8.5 6.36-12.8l.03-.7M4242.23 13797.9l-295.51 709c2.59-1 6.15-1.3 8.8-2.4 80.26-31.4 178.83-49.9 286.71-49.9 108.7 0 208.04 18.9 288.8 50.8 2.54 1 5.97 1.3 8.46 2.3zm-481.45 917.2c0-28 9.28-56.4 26.54-85.2l.02-.7 408.79-980.3c7.62-18.5 25.98-30.6 46.1-30.6 20.11 0 38.28 12.1 46.09 30.6l411.52 983 .03 1.1c15.17 25.6 24 52.9 24 82.1 0 147.9-207.03 259.2-481.64 259.2-274.42 0-481.45-111.3-481.45-259.2M9714.69 18128.6l215.43-373.2-215.43-374.2-216.41 374.2zm2730.31-313.3h-2410.8l-215.39 373.1h2411.09zm-215.3-494.3H9818.59l215.51 374.4H12445zm-2566.77-90c10.74-18.6 30.47-29.9 51.95-29.9h2549.62c21.5 0 41.2 11.5 51.9 30.1l284.4 494.3a59.42 59.42 0 0 1 0 59.9l-284.4 492.8c-10.7 18.8-30.4 30.1-51.9 30.1H9714.88c-21.48 0-41.21-11.3-51.95-29.9l-285.94-493c-10.74-18.5-10.74-41.5 0-60.1l285.94-494.3M2480.68 3651.8h-809.22v-809.2h809.22v809.2M10268.8 14214.6l255.8-255.7-255.8-255.7-255.7 255.7zm425.4-255.7-425.4 425.6-425.21-425.6 425.21-425.6 425.4 425.6M12556.3 12654.4h285.3v-570.5h-285.3zm690.4-690.4v810.3h-810.3V11964h810.3M5081.27 9034c0-173.1 140.34-313.5 313.46-313.5 173.11 0 313.45 140.4 313.45 313.5s-140.34 313.4-313.45 313.4c-173.12 0-313.46-140.3-313.46-313.4M5254.04 11359.1c0-77.7 62.99-140.7 140.69-140.7 77.68 0 140.67 63 140.67 140.7 0 77.7-62.99 140.7-140.67 140.7-77.7 0-140.69-63-140.69-140.7M12483.6 6643.9l-159.3-366h945.7l159.4 366h-945.8" transform="matrix(.13333 0 0 -.13333 0 2666.667)"/></svg>