<svg xmlns="http://www.w3.org/2000/svg" height="800" width="800" xml:space="preserve"><path style="fill:#b2b2b2;fill-opacity:1;fill-rule:evenodd;stroke:none" d="M0 0h6000v6000H0V0" transform="matrix(.13333 0 0 -.13333 0 800)"/><path style="fill:#00f;fill-opacity:1;fill-rule:nonzero;stroke:none" d="M1630.94 1609.1h-2.72v90.48h2.72v-90.48" transform="matrix(.13333 0 0 -.13333 0 800)"/><path style="fill:#00f;fill-opacity:1;fill-rule:nonzero;stroke:none" d="M1674.82 1652.97h-90.47v2.72h90.47v-2.72M2316.16 1609.1h-2.73v90.48h2.73v-90.48" transform="matrix(.13333 0 0 -.13333 0 800)"/><path style="fill:#00f;fill-opacity:1;fill-rule:nonzero;stroke:none" d="M2360.04 1652.97h-90.48v2.72h90.48v-2.72M3001.36 1609.1h-2.73v90.48h2.73v-90.48" transform="matrix(.13333 0 0 -.13333 0 800)"/><path style="fill:#00f;fill-opacity:1;fill-rule:nonzero;stroke:none" d="M3045.23 1652.97h-90.46v2.72h90.46v-2.72M3686.57 1609.1h-2.73v90.48h2.73v-90.48" transform="matrix(.13333 0 0 -.13333 0 800)"/><path style="fill:#00f;fill-opacity:1;fill-rule:nonzero;stroke:none" d="M3730.44 1652.97h-90.47v2.72h90.47v-2.72M4371.78 1609.1h-2.72v90.48h2.72v-90.48" transform="matrix(.13333 0 0 -.13333 0 800)"/><path style="fill:#00f;fill-opacity:1;fill-rule:nonzero;stroke:none" d="M4415.65 1652.97h-90.48v2.72h90.48v-2.72M1630.94 2294.32h-2.72v90.47h2.72v-90.47" transform="matrix(.13333 0 0 -.13333 0 800)"/><path style="fill:#00f;fill-opacity:1;fill-rule:nonzero;stroke:none" d="M1674.82 2338.19h-90.47v2.72h90.47v-2.72M1630.94 2979.52h-2.72v90.46h2.72v-90.46" transform="matrix(.13333 0 0 -.13333 0 800)"/><path style="fill:#00f;fill-opacity:1;fill-rule:nonzero;stroke:none" d="M1674.82 3023.4h-90.47v2.72h90.47v-2.72M1630.94 3664.72h-2.72v90.47h2.72v-90.47" transform="matrix(.13333 0 0 -.13333 0 800)"/><path style="fill:#00f;fill-opacity:1;fill-rule:nonzero;stroke:none" d="M1674.82 3708.59h-90.47v2.73h90.47v-2.73M1630.94 4349.93h-2.72v90.47h2.72v-90.47" transform="matrix(.13333 0 0 -.13333 0 800)"/><path style="fill:#00f;fill-opacity:1;fill-rule:nonzero;stroke:none" d="M1674.82 4393.81h-90.47v2.73h90.47v-2.73M2316.16 2294.32h-2.73v90.47h2.73v-90.47" transform="matrix(.13333 0 0 -.13333 0 800)"/><path style="fill:#00f;fill-opacity:1;fill-rule:nonzero;stroke:none" d="M2360.04 2338.19h-90.48v2.72h90.48v-2.72M2316.16 2979.52h-2.73v90.46h2.73v-90.46" transform="matrix(.13333 0 0 -.13333 0 800)"/><path style="fill:#00f;fill-opacity:1;fill-rule:nonzero;stroke:none" d="M2360.04 3023.4h-90.48v2.72h90.48v-2.72M2316.16 3664.72h-2.73v90.47h2.73v-90.47" transform="matrix(.13333 0 0 -.13333 0 800)"/><path style="fill:#00f;fill-opacity:1;fill-rule:nonzero;stroke:none" d="M2360.04 3708.59h-90.48v2.73h90.48v-2.73M2316.16 4349.93h-2.73v90.47h2.73v-90.47" transform="matrix(.13333 0 0 -.13333 0 800)"/><path style="fill:#00f;fill-opacity:1;fill-rule:nonzero;stroke:none" d="M2360.04 4393.81h-90.48v2.73h90.48v-2.73M3001.36 2294.32h-2.73v90.47h2.73v-90.47" transform="matrix(.13333 0 0 -.13333 0 800)"/><path style="fill:#00f;fill-opacity:1;fill-rule:nonzero;stroke:none" d="M3045.23 2338.19h-90.46v2.72h90.46v-2.72M3001.36 2979.52h-2.73v90.46h2.73v-90.46" transform="matrix(.13333 0 0 -.13333 0 800)"/><path style="fill:#00f;fill-opacity:1;fill-rule:nonzero;stroke:none" d="M3045.23 3023.4h-90.46v2.72h90.46v-2.72M3001.36 3664.72h-2.73v90.47h2.73v-90.47" transform="matrix(.13333 0 0 -.13333 0 800)"/><path style="fill:#00f;fill-opacity:1;fill-rule:nonzero;stroke:none" d="M3045.23 3708.59h-90.46v2.73h90.46v-2.73M3001.36 4349.93h-2.73v90.47h2.73v-90.47" transform="matrix(.13333 0 0 -.13333 0 800)"/><path style="fill:#00f;fill-opacity:1;fill-rule:nonzero;stroke:none" d="M3045.23 4393.81h-90.46v2.73h90.46v-2.73M3686.57 2294.32h-2.73v90.47h2.73v-90.47" transform="matrix(.13333 0 0 -.13333 0 800)"/><path style="fill:#00f;fill-opacity:1;fill-rule:nonzero;stroke:none" d="M3730.44 2338.19h-90.47v2.72h90.47v-2.72M3686.57 2979.52h-2.73v90.46h2.73v-90.46" transform="matrix(.13333 0 0 -.13333 0 800)"/><path style="fill:#00f;fill-opacity:1;fill-rule:nonzero;stroke:none" d="M3730.44 3023.4h-90.47v2.72h90.47v-2.72M3686.57 3664.72h-2.73v90.47h2.73v-90.47" transform="matrix(.13333 0 0 -.13333 0 800)"/><path style="fill:#00f;fill-opacity:1;fill-rule:nonzero;stroke:none" d="M3730.44 3708.59h-90.47v2.73h90.47v-2.73M3686.57 4349.93h-2.73v90.47h2.73v-90.47" transform="matrix(.13333 0 0 -.13333 0 800)"/><path style="fill:#00f;fill-opacity:1;fill-rule:nonzero;stroke:none" d="M3730.44 4393.81h-90.47v2.73h90.47v-2.73M4371.78 2294.32h-2.72v90.47h2.72v-90.47" transform="matrix(.13333 0 0 -.13333 0 800)"/><path style="fill:#00f;fill-opacity:1;fill-rule:nonzero;stroke:none" d="M4415.65 2338.19h-90.48v2.72h90.48v-2.72M4371.78 2979.52h-2.72v90.46h2.72v-90.46" transform="matrix(.13333 0 0 -.13333 0 800)"/><path style="fill:#00f;fill-opacity:1;fill-rule:nonzero;stroke:none" d="M4415.65 3023.4h-90.48v2.72h90.48v-2.72M4371.78 3664.72h-2.72v90.47h2.72v-90.47" transform="matrix(.13333 0 0 -.13333 0 800)"/><path style="fill:#00f;fill-opacity:1;fill-rule:nonzero;stroke:none" d="M4415.65 3708.59h-90.48v2.73h90.48v-2.73M4371.78 4349.93h-2.72v90.47h2.72v-90.47" transform="matrix(.13333 0 0 -.13333 0 800)"/><path style="fill:#00f;fill-opacity:1;fill-rule:nonzero;stroke:none" d="M4415.65 4393.81h-90.48v2.73h90.48v-2.73M1139.01 4894.52l1.92-1.94c-223.442-223.45-223.442-587.02 0-810.47 223.46-223.43 587.03-223.43 810.48 0l405.23 405.24-405.23 405.24c-223.45 223.43-587.02 223.43-810.47 0zm407.16-985.44c-148.15 0-296.3 56.39-409.09 169.18-108.82 108.82-168.752 254.1-168.752 409.09-.004 154.98 59.922 300.26 168.752 409.09 225.57 225.57 592.61 225.58 818.18 0l409.1-409.09-1.93-1.93-407.17-407.16c-112.78-112.79-260.93-169.18-409.09-169.18" transform="matrix(.13333 0 0 -.13333 0 800)"/><path style="fill:#00f;fill-opacity:1;fill-rule:nonzero;stroke:none" d="M1091.3 4827.41c-101.999-113.28-153.753-260.11-145.718-413.43 8.035-153.32 74.848-293.92 188.138-395.92 113.29-102.01 260.12-153.6 413.43-145.73 153.31 8.04 293.92 74.86 395.93 188.14l383.47 425.89-425.89 383.47c-234.83 211.45-597.91 192.4-809.36-42.42zm424.86-961.35c-143.39 0-279.44 51.91-386.09 147.94-114.37 102.98-181.82 244.93-189.933 399.7-8.114 154.77 44.136 303 147.113 417.36 213.46 237.07 580 256.27 817.06 42.83l429.94-387.14-1.82-2.02-385.3-427.91c-102.98-114.37-244.93-181.82-399.7-189.93-10.44-.55-20.89-.83-31.27-.83" transform="matrix(.13333 0 0 -.13333 0 800)"/><path style="fill:#00f;fill-opacity:1;fill-rule:nonzero;stroke:none" d="M1491.06 4971.92c-167.09 0-332.82-72.53-445.92-212.19-95.933-118.46-139.929-267.8-123.878-420.49 16.047-152.68 90.128-289.6 208.588-385.53 118.48-95.94 267.8-139.91 420.5-123.9 152.69 16.05 289.6 90.14 385.54 208.61l360.66 445.37-445.38 360.66c-105.91 85.76-233.4 127.47-360.11 127.47zm-2.25-1150.8c-132.12 0-258.91 44.55-362.38 128.34-119.6 96.85-194.395 235.08-210.59 389.22-16.203 154.12 28.215 304.88 125.07 424.49 200.76 247.89 565.79 286.28 813.69 85.53l449.62-364.1-1.72-2.12-362.37-447.5c-96.85-119.6-235.07-194.39-389.21-210.59a592.71 592.71 0 0 0-62.11-3.27" transform="matrix(.13333 0 0 -.13333 0 800)"/><path style="fill:#00f;fill-opacity:1;fill-rule:nonzero;stroke:none" d="m1000.39 4691.34 2.2-1.61c-185.738-255.66-128.863-614.75 126.79-800.49 123.33-89.6 274.78-125.77 426.39-101.71 151.64 24.02 284.49 105.16 374.1 228.5l336.85 463.63-463.63 336.86c-255.65 185.74-614.76 128.85-800.5-126.79zm463.76-916.52c-121.19 0-238.61 37.8-337.97 110-258.09 187.51-315.508 550.03-128.004 808.12 187.504 258.08 550.044 315.48 808.114 127.99l468.05-340.07-1.6-2.21-338.46-465.83c-90.46-124.51-224.58-206.43-377.65-230.68-30.91-4.89-61.82-7.32-92.48-7.32" transform="matrix(.13333 0 0 -.13333 0 800)"/><path style="fill:#00f;fill-opacity:1;fill-rule:nonzero;stroke:none" d="M1445.29 4878.4c-187.75 0-371.87-91.94-481.528-260.8-172.106-265.03-96.52-620.65 168.498-792.76 265.04-172.11 620.66-96.51 792.76 168.5l312.13 480.64-480.63 312.13c-96.16 62.44-204.3 92.29-311.23 92.29zm-1.8-1151.31c-107.96 0-217.09 30.12-314.19 93.18-267.546 173.73-343.859 532.75-170.112 800.3 83.822 129.07 213.472 217.89 365.062 250.12 151.59 32.25 306.17 3.81 435.24-80.01l485.21-315.11-315.1-485.2c-110.69-170.45-296.59-263.28-486.11-263.28" transform="matrix(.13333 0 0 -.13333 0 800)"/><path style="fill:#00f;fill-opacity:1;fill-rule:nonzero;stroke:none" d="m926.395 4544.89 2.363-1.36c-76.223-132.02-96.317-286.4-56.582-434.69 39.738-148.3 134.324-271.95 266.344-348.17 132.02-76.21 286.39-96.31 434.69-56.58 148.3 39.74 271.95 134.33 348.17 266.35l286.54 496.31-496.31 286.55c-273.67 158.01-624.85 63.89-782.852-209.77zm496.545-866.19c-100.07 0-198.58 26.11-287.14 77.26-133.28 76.94-228.773 201.76-268.89 351.47-40.113 149.7-19.828 305.55 57.121 438.83 159.519 276.26 514.059 371.26 790.309 211.76l501.03-289.28-289.27-501.02c-76.95-133.28-201.77-228.78-351.48-268.89-50.22-13.46-101.15-20.12-151.68-20.13" transform="matrix(.13333 0 0 -.13333 0 800)"/><path style="fill:#00f;fill-opacity:1;fill-rule:nonzero;stroke:none" d="M1409.25 4780.58c-208.82 0-410.441-114.38-511.566-312.85-69.211-135.83-81.196-291.04-33.754-437.05 47.441-146.01 148.37-264.54 284.2-333.75 83.09-42.34 171.81-62.4 259.24-62.41 208.83-.01 410.43 114.38 511.56 312.85L2179.11 4458l-510.63 260.18c-83.08 42.34-171.8 62.4-259.23 62.4zm-1.89-1151.5c-88.27-.01-177.81 20.24-261.71 62.98-137.12 69.88-239.013 189.53-286.908 336.93-47.89 147.4-35.789 304.09 34.082 441.22l2.43-1.24-2.43 1.24c144.816 284.24 493.896 397.63 778.136 252.84l515.49-262.66-262.66-515.5c-102.08-200.33-305.64-315.81-516.43-315.81" transform="matrix(.13333 0 0 -.13333 0 800)"/><path style="fill:#00f;fill-opacity:1;fill-rule:nonzero;stroke:none" d="M1395.7 4730.33c-69.63 0-139.5-12.85-206.67-38.64-143.33-55.02-256.417-162.02-318.417-301.28-128.527-288.68 1.766-628.1 290.447-756.64 139.26-62 294.9-65.84 438.22-10.83 143.33 55.02 256.42 162.01 318.42 301.27l233.1 523.55-523.55 233.1c-73.99 32.94-152.62 49.47-231.55 49.47zm-3.08-1151.48c-79.71-.01-159.06 16.67-233.78 49.94-291.426 129.76-422.961 472.41-293.207 763.84l2.492-1.11-2.492 1.11c62.594 140.6 176.757 248.61 321.437 304.16 144.7 55.53 301.82 51.63 442.4-10.95l528.52-235.32L1922.68 3922c-62.6-140.59-176.75-248.61-321.44-304.15-67.8-26.03-138.35-39-208.62-39" transform="matrix(.13333 0 0 -.13333 0 800)"/><path style="fill:#00f;fill-opacity:1;fill-rule:nonzero;stroke:none" d="M1383.77 4679.49c-79.45 0-158.88-16.76-233.93-50.17-140.25-62.45-247.578-175.22-302.207-317.53v-.01c-54.633-142.32-50.328-297.94 12.113-438.19 62.445-140.25 175.214-247.58 317.524-302.2 142.33-54.63 297.95-50.34 438.2 12.11 140.25 62.44 247.58 175.21 302.21 317.52l205.38 535.03-535.03 205.38c-66.16 25.39-135.23 38.06-204.26 38.06zM1382 3527.84c-68.8 0-138.71 12.35-206.67 38.44-297.826 114.33-447.115 449.64-332.791 747.45l2.547-.98-2.547.98c55.152 143.68 163.501 257.53 305.091 320.56 141.58 63.03 298.68 67.39 442.36 12.23l540.11-207.33-207.33-540.12c-88.23-229.86-308.1-371.23-540.77-371.23" transform="matrix(.13333 0 0 -.13333 0 800)"/><path style="fill:#00f;fill-opacity:1;fill-rule:nonzero;stroke:none" d="m826.199 4232.9 2.594-.85c-97.648-300.54 67.41-624.48 367.937-722.13 58.61-19.05 118.16-28.09 176.7-28.1 241.64-.02 466.83 154.11 545.44 396.04l177.1 545.05L1550.92 4600c-144.97 47.09-300.15 34.67-436.95-35.04-136.79-69.69-238.072-187.92-285.177-332.91zm547.231-756.53c-59.11 0-119.19 9.13-178.37 28.36-303.4 98.58-470.033 425.61-371.455 729.02 47.555 146.36 149.797 265.72 287.895 336.07 138.08 70.37 294.74 82.94 441.11 35.37l550.23-178.78-178.78-550.24c-79.35-244.21-306.72-399.8-550.63-399.8" transform="matrix(.13333 0 0 -.13333 0 800)"/><path style="fill:#00f;fill-opacity:1;fill-rule:nonzero;stroke:none" d="m811.52 4152.16 2.632-.7c-81.789-305.24 100-620.11 405.228-701.9 305.24-81.78 620.11 100 701.89 405.24l148.33 553.57-553.56 148.33c-305.24 81.78-620.099-100.01-701.888-405.24zm555.95-727.65c-49.92 0-100.09 6.55-149.49 19.79-308.14 82.56-491.664 400.43-409.097 708.57 82.566 308.13 400.427 491.66 708.567 409.09l558.83-149.74-149.73-558.83c-39.84-148.66-135.69-273.2-269.91-350.7-89.62-51.73-188.87-78.18-289.17-78.18" transform="matrix(.13333 0 0 -.13333 0 800)"/><path style="fill:#00f;fill-opacity:1;fill-rule:nonzero;stroke:none" d="M1364.2 4524.2c-109.52 0-217.11-31.73-311.63-93.11-128.757-83.62-217.125-211.79-248.816-360.9-31.699-149.11-3.102-302.13 80.516-430.89 83.617-128.76 211.78-217.13 360.89-248.82 309.11-65.72 614.03 132.31 679.72 441.4l119.15 560.57-560.56 119.16c-39.65 8.42-79.59 12.59-119.27 12.59zm.25-1151.76c-39.74-.01-80.02 4.12-120.42 12.7-150.53 32.01-279.925 121.21-364.335 251.19-84.414 129.98-113.277 284.46-81.277 434.99l2.668-.56-2.668.56c31.996 150.54 121.203 279.94 251.182 364.35 129.98 84.41 284.46 113.27 435 81.27l565.91-120.28-120.29-565.91c-57.74-271.64-298.54-458.3-565.77-458.31" transform="matrix(.13333 0 0 -.13333 0 800)"/><path style="fill:#00f;fill-opacity:1;fill-rule:nonzero;stroke:none" d="M1363.27 4471.99c-119.86 0-236.65-37.83-336.06-110.06-124.206-90.24-205.741-222.86-229.593-373.42-49.429-312.12 164.27-606.26 476.383-655.69 30.21-4.79 60.31-7.1 89.98-7.11 276.83-.02 521.06 201.59 565.71 483.48l89.65 566.05-566.04 89.64a575.324 575.324 0 0 1-90.03 7.11zm.71-1151.73c-29.97 0-60.31 2.34-90.83 7.17-152.01 24.08-285.888 106.38-376.986 231.77-91.098 125.39-128.008 278.15-103.93 430.15 24.071 152.01 106.383 285.9 231.766 376.99 125.38 91.1 278.13 128 430.15 103.93l571.43-90.51-.43-2.68-90.08-568.73c-45.07-284.56-291.64-488.09-571.09-488.09" transform="matrix(.13333 0 0 -.13333 0 800)"/><path style="fill:#00f;fill-opacity:1;fill-rule:nonzero;stroke:none" d="M1365.23 4419.82c-130.43 0-256.31-44.54-359.73-128.29-119.312-96.62-193.801-233.32-209.734-384.92-15.934-151.61 28.504-300.82 125.117-420.12 96.617-119.32 233.317-193.81 384.927-209.74 151.6-15.91 300.81 28.5 420.12 125.12 119.32 96.61 193.8 233.32 209.74 384.92l59.9 569.96-569.95 59.89a575.628 575.628 0 0 1-60.39 3.18zm.98-1151.7c-20.24 0-40.57 1.06-60.97 3.2-153.05 16.09-291.06 91.28-388.592 211.73-97.539 120.44-142.394 271.06-126.304 424.12l2.711-.28-2.711.28c16.086 153.06 91.277 291.06 211.716 388.6 120.45 97.54 271.05 142.41 424.13 126.3l575.38-60.48-.29-2.7-60.19-572.66c-16.09-153.06-91.28-291.07-211.72-388.6-104.4-84.54-231.48-129.5-363.16-129.51" transform="matrix(.13333 0 0 -.13333 0 800)"/><path style="fill:#00f;fill-opacity:1;fill-rule:nonzero;stroke:none" d="M1370.18 4367.83c-302.38 0-555.965-237.7-571.969-543.11-16.539-315.56 226.739-585.75 542.299-602.3 315.6-16.57 585.76 226.74 602.3 542.31l30 572.3-572.31 30c-10.15.54-20.27.8-30.32.8zm.67-1151.66c-10.16 0-20.35.26-30.62.8-318.57 16.71-564.164 289.47-547.468 608.03 16.687 318.58 289.508 564.25 608.018 547.48l577.76-30.28-.14-2.72-30.14-575.03c-16.16-308.31-272.17-548.28-577.41-548.28" transform="matrix(.13333 0 0 -.13333 0 800)"/><path style="fill:#00f;fill-opacity:1;fill-rule:nonzero;stroke:none" d="M1378.01 4316.17c-316 0-573.076-257.09-573.076-573.1 0-316 257.076-573.09 573.076-573.09 316.01 0 573.1 257.09 573.1 573.09v573.1zm.01-1151.64c-319.01 0-578.547 259.53-578.547 578.54 0 319.02 259.537 578.54 578.537 578.54h578.55v-578.54c0-319.01-259.53-578.54-578.54-578.54" transform="matrix(.13333 0 0 -.13333 0 800)"/><path style="fill:#00f;fill-opacity:1;fill-rule:nonzero;stroke:none" d="M815.91 3661.89c16.535-315.58 286.85-559 602.3-542.31 152.23 7.98 292.65 75.21 395.38 189.3 102.73 114.09 154.91 260.77 146.93 413l-29.99 572.31-572.31-30c-152.23-7.98-292.65-75.21-395.372-189.3-102.735-114.09-154.914-260.77-146.938-413l-2.722-.14zm571.96-548.55c-305.26 0-561.241 239.94-577.409 548.26-16.691 318.57 228.899 591.34 547.479 608.04l577.75 30.28.14-2.72 30.14-575.04c8.05-153.69-44.63-301.75-148.33-416.93-103.71-115.18-245.45-183.04-399.14-191.1-10.25-.53-20.48-.79-30.63-.79" transform="matrix(.13333 0 0 -.13333 0 800)"/><path style="fill:#00f;fill-opacity:1;fill-rule:nonzero;stroke:none" d="m1911.12 4271.16-569.94-59.91c-314.27-33.03-543.078-315.58-510.047-629.85v-.01c30.898-293.99 280.197-513.19 569.517-513.21 19.95 0 40.06 1.04 60.33 3.17 151.61 15.93 288.32 90.42 384.93 209.74 96.62 119.3 141.05 268.51 125.12 420.12zm-510.47-1208.43c-292.1-.01-543.748 221.29-574.939 518.1-33.348 317.25 197.629 602.5 514.899 635.85l575.37 60.47.28-2.71 60.2-572.67c33.34-317.26-197.64-602.5-514.9-635.85a585.226 585.226 0 0 0-60.91-3.19" transform="matrix(.13333 0 0 -.13333 0 800)"/><path style="fill:#00f;fill-opacity:1;fill-rule:nonzero;stroke:none" d="M850.543 3501.8c23.848-150.56 105.383-283.18 229.587-373.41 124.2-90.24 275.55-126.81 426.09-102.96 150.57 23.85 283.19 105.38 373.43 229.58 90.24 124.21 126.81 275.54 102.96 426.11l-89.65 566.02-566.04-89.65c-312.1-49.43-525.807-343.56-476.381-655.68l-2.691-.42zm565.647-488.94c-121.01 0-238.91 38.2-339.27 111.11-125.377 91.1-207.69 224.98-231.76 376.99-49.906 315.08 165.83 612.01 480.91 661.92l571.42 90.5.43-2.69 90.07-568.73c49.91-315.07-165.83-612.01-480.91-661.92a580.262 580.262 0 0 0-90.89-7.18" transform="matrix(.13333 0 0 -.13333 0 800)"/><path style="fill:#00f;fill-opacity:1;fill-rule:nonzero;stroke:none" d="m1876.07 4222.22-560.57-119.16c-149.11-31.69-277.28-120.06-360.895-248.82-83.617-128.76-112.207-281.78-80.511-430.89 31.691-149.11 120.054-277.28 248.816-360.9 128.76-83.61 281.79-112.2 430.89-80.51 149.12 31.69 277.29 120.05 360.91 248.81 83.61 128.76 112.21 281.79 80.51 430.9zm-441.54-1258.33c-110.57 0-219.18 32.03-314.59 93.98-129.983 84.41-219.186 213.81-251.182 364.35-31.996 150.53-3.133 305.01 81.277 434.99 84.415 129.98 213.795 219.19 364.335 251.19l565.9 120.28 120.29-565.9c32-150.53 3.13-305.02-81.28-435-84.41-129.98-213.8-219.18-364.34-251.18-40.03-8.51-80.35-12.71-120.41-12.71" transform="matrix(.13333 0 0 -.13333 0 800)"/><path style="fill:#00f;fill-opacity:1;fill-rule:nonzero;stroke:none" d="m1860.51 4196.45-553.57-148.34c-305.23-81.78-487.018-396.65-405.229-701.88l.008-.01c39.453-147.25 134.401-270.62 267.361-347.38 132.97-76.75 287.27-97.31 434.52-57.86 305.23 81.8 487.02 396.67 405.24 701.9zm-405-1280.51c-100.31-.01-199.54 26.43-289.16 78.18-134.22 77.49-230.073 202.03-269.905 350.69-39.832 148.66-19.09 304.44 58.399 438.67 77.496 134.21 202.036 230.07 350.696 269.9l558.82 149.74.71-2.63 149.04-556.2c82.56-308.14-100.96-626-409.1-708.56-49.39-13.24-99.59-19.79-149.5-19.79" transform="matrix(.13333 0 0 -.13333 0 800)"/><path style="fill:#00f;fill-opacity:1;fill-rule:nonzero;stroke:none" d="m1846.32 4169.87-545.04-177.09c-144.98-47.11-263.21-148.38-332.909-285.18-69.703-136.79-82.144-291.97-35.035-436.94 47.109-144.99 148.384-263.21 285.174-332.92 136.79-69.7 291.98-82.16 436.96-35.04 300.53 97.66 465.59 421.61 367.95 722.14zm-367.27-1300.71c-90.2 0-179.96 21.41-263.01 63.72-138.09 70.37-240.337 189.72-287.892 336.09-47.558 146.36-35 303.03 35.36 441.12 70.362 138.08 189.722 240.32 336.092 287.88l550.22 178.78 178.78-550.22c47.56-146.37 35-303.02-35.36-441.12-70.36-138.09-189.72-240.32-336.08-287.88-58.35-18.97-118.33-28.37-178.11-28.37" transform="matrix(.13333 0 0 -.13333 0 800)"/><path style="fill:#00f;fill-opacity:1;fill-rule:nonzero;stroke:none" d="m1833.54 4142.62-535.02-205.38c-142.32-54.63-255.09-161.96-317.532-302.22-62.449-140.25-66.75-295.87-12.121-438.18h.004c113.239-295.01 445.389-442.92 740.399-329.65 295.01 113.24 442.89 445.39 329.65 740.4zm-328.53-1318.95c-80.21 0-160.39 16.93-236.15 50.66-141.58 63.03-249.93 176.87-305.079 320.55-55.152 143.68-50.812 300.78 12.223 442.36 63.036 141.59 176.876 249.94 320.556 305.09l540.12 207.33 207.33-540.12c55.15-143.68 50.81-300.77-12.23-442.36-63.03-141.58-176.88-249.92-320.56-305.08-66.8-25.64-136.51-38.43-206.21-38.43" transform="matrix(.13333 0 0 -.13333 0 800)"/><path style="fill:#00f;fill-opacity:1;fill-rule:nonzero;stroke:none" d="m1822.21 4114.72-523.55-233.1c-288.68-128.53-418.972-467.96-290.44-756.63 62-139.27 175.08-246.27 318.41-301.29 143.32-55.01 298.96-51.16 438.22 10.84 139.27 62 246.27 175.09 301.28 318.42 55.02 143.33 51.18 298.95-10.83 438.21zM1533.3 2779.61c-70.29 0-140.81 12.97-208.62 39-144.69 55.55-258.85 163.56-321.44 304.16-129.756 291.43 1.77 634.08 293.2 763.83l528.53 235.32 235.31-528.53c62.6-140.59 66.49-297.7 10.95-442.39-55.54-144.69-163.56-258.85-304.15-321.44-74.7-33.26-154.09-49.95-233.78-49.95" transform="matrix(.13333 0 0 -.13333 0 800)"/><path style="fill:#00f;fill-opacity:1;fill-rule:nonzero;stroke:none" d="m1812.35 4086.27-510.63-260.18c-281.56-143.46-393.911-489.24-250.45-770.79v-.01c69.21-135.83 187.73-236.76 333.75-284.2 146.01-47.43 301.23-35.47 437.05 33.76 281.56 143.46 393.92 489.24 250.46 770.79zm-248.56-1349.19c-60.41 0-121.18 9.56-180.46 28.82-147.4 47.89-267.05 149.79-336.92 286.91-144.824 284.25-31.4 633.32 252.83 778.15l515.49 262.64 262.65-515.48c144.83-284.24 31.41-633.31-252.83-778.14-81.98-41.77-170.96-62.9-260.76-62.9" transform="matrix(.13333 0 0 -.13333 0 800)"/><path style="fill:#00f;fill-opacity:1;fill-rule:nonzero;stroke:none" d="m1803.99 4057.35-496.31-286.55c-132.02-76.22-226.61-199.87-266.35-348.16-39.73-148.3-19.64-302.67 56.58-434.69l.01-.01c76.22-132.02 199.86-226.61 348.16-266.34 148.29-39.73 302.66-19.63 434.69 56.58 132.02 76.22 226.61 199.87 266.34 348.16 39.74 148.3 19.65 302.67-56.58 434.69zm-207.64-1361.14c-50.54 0-101.45 6.66-151.68 20.12-149.7 40.11-274.53 135.61-351.48 268.89-76.95 133.28-97.233 289.13-57.12 438.83 40.11 149.7 135.6 274.53 268.88 351.47l501.03 289.27 1.37-2.36 287.91-498.67c76.95-133.28 97.24-289.13 57.12-438.83-40.11-149.7-135.6-274.52-268.88-351.47-88.56-51.13-187.09-77.24-287.15-77.25" transform="matrix(.13333 0 0 -.13333 0 800)"/><path style="fill:#00f;fill-opacity:1;fill-rule:nonzero;stroke:none" d="m1797.16 4028.02-480.64-312.13c-127.85-83.03-215.83-211.46-247.76-361.63-31.91-150.17-3.77-303.27 79.26-431.12v-.01c83.03-127.85 211.45-215.84 361.62-247.76 150.18-31.91 303.28-3.77 431.14 79.26 127.84 83.03 215.83 211.46 247.75 361.63 31.92 150.17 3.78 303.28-79.25 431.13zM1630.85 2657.1c-40.63 0-81.58 4.27-122.34 12.94-151.59 32.22-281.25 121.05-365.06 250.12-83.82 129.07-112.24 283.64-80.02 435.24 32.22 151.6 121.05 281.24 250.12 365.06l485.21 315.11 1.49-2.29 313.61-482.92c173.74-267.55 97.43-626.56-170.11-800.3-94.37-61.29-202.39-92.96-312.9-92.96" transform="matrix(.13333 0 0 -.13333 0 800)"/><path style="fill:#00f;fill-opacity:1;fill-rule:nonzero;stroke:none" d="M1201.45 2861.03c185.72-255.65 544.84-312.55 800.49-126.78 123.32 89.59 204.47 222.45 228.49 374.1 24.02 151.63-12.11 303.06-101.71 426.38l-336.85 463.65-463.64-336.86c-255.65-185.74-312.53-544.84-126.78-800.49zm464.4-241.48c-179.08 0-355.75 82.65-468.82 238.27-187.51 258.09-130.09 620.6 127.99 808.11l468.05 340.06 1.61-2.19 338.46-465.85c90.46-124.52 126.92-277.38 102.67-430.46-24.24-153.08-106.16-287.2-230.66-377.66-102.46-74.43-221.42-110.28-339.3-110.28" transform="matrix(.13333 0 0 -.13333 0 800)"/><path style="fill:#00f;fill-opacity:1;fill-rule:nonzero;stroke:none" d="m1788.14 3968.5-445.38-360.66c-118.46-95.93-192.55-232.85-208.6-385.54-16.05-152.69 27.95-302.02 123.88-420.48l.01-.01c95.93-118.47 232.85-192.55 385.54-208.6 152.68-16.02 302.02 27.96 420.49 123.89 118.47 95.93 192.55 232.84 208.6 385.53 16.05 152.69-27.94 302.02-123.88 420.49zm-83.01-1383.98c-20.6 0-41.32 1.08-62.11 3.27-154.14 16.19-292.36 90.98-389.21 210.58-96.85 119.61-141.27 270.36-125.07 424.5 16.2 154.13 90.99 292.36 210.59 389.22l449.62 364.07 1.71-2.11 362.38-447.49c200.76-247.93 162.39-612.95-85.53-813.71-103.47-83.78-230.27-128.32-362.38-128.33" transform="matrix(.13333 0 0 -.13333 0 800)"/><path style="fill:#00f;fill-opacity:1;fill-rule:nonzero;stroke:none" d="m1785.98 3938.47-425.89-383.48c-113.29-102-180.1-242.61-188.14-395.93-8.03-153.32 43.72-300.14 145.72-413.43 102.01-113.28 242.62-180.09 395.94-188.13 153.3-8.09 300.14 43.71 413.43 145.72 113.28 102 180.09 242.61 188.13 395.93 8.03 153.32-43.72 300.14-145.72 413.43zm-41.39-1387.23c-10.39 0-20.81.27-31.27.81-154.77 8.11-296.72 75.56-399.69 189.94-102.99 114.36-155.23 262.59-147.12 417.36 8.11 154.77 75.56 296.72 189.93 399.7l429.94 387.12 1.83-2.03 385.29-427.92c102.98-114.36 155.23-262.59 147.12-417.35-8.12-154.78-75.57-296.73-189.94-399.71-106.64-96.01-242.72-147.92-386.09-147.92" transform="matrix(.13333 0 0 -.13333 0 800)"/><path style="fill:#00f;fill-opacity:1;fill-rule:nonzero;stroke:none" d="m1785.39 3908.36-405.23-405.23c-107.8-107.8-167.16-251.72-167.16-405.24 0-153.53 59.36-297.44 167.16-405.24 111.71-111.7 258.5-167.56 405.23-167.58 146.78-.01 293.5 55.85 405.24 167.58 107.79 107.8 167.16 251.71 167.16 405.24 0 153.52-59.37 297.44-167.16 405.24zm0-1388.74c-148.17-.02-296.29 56.37-409.08 169.18-108.83 108.82-168.76 254.11-168.76 409.09 0 154.98 59.93 300.27 168.75 409.09l409.09 409.09 409.09-409.09c108.83-108.82 168.76-254.11 168.76-409.09 0-154.98-59.93-300.27-168.76-409.09-112.77-112.78-260.95-169.17-409.09-169.18" transform="matrix(.13333 0 0 -.13333 0 800)"/><path style="fill:#00f;fill-opacity:1;fill-rule:nonzero;stroke:none" d="m1786.38 3878.27-383.47-425.89c-102-113.28-153.75-260.11-145.72-413.43 8.04-153.32 74.85-293.93 188.14-395.93 113.29-102 260.07-153.76 413.43-145.72 153.31 8.04 293.93 74.85 395.93 188.14 102.01 113.28 153.75 260.11 145.72 413.43-8.04 153.32-74.85 293.92-188.14 395.92zm41.39-1387.23c-143.38-.01-279.44 51.9-386.09 147.92-114.37 102.98-181.82 244.93-189.93 399.71-8.12 154.76 44.13 302.99 147.11 417.36l387.12 429.94 429.94-387.12c114.37-102.98 181.83-244.93 189.93-399.7 8.12-154.77-44.13-303-147.11-417.36-102.98-114.37-244.92-181.83-399.69-189.93-10.45-.55-20.89-.82-31.28-.82" transform="matrix(.13333 0 0 -.13333 0 800)"/><path style="fill:#00f;fill-opacity:1;fill-rule:nonzero;stroke:none" d="M1513.01 2596.86c245.58-198.86 607.16-160.87 806.03 84.71 95.93 118.47 139.93 267.81 123.88 420.5-16.04 152.68-90.13 289.6-208.59 385.53l-445.38 360.67-360.66-445.38c-198.86-245.57-160.86-607.16 84.72-806.02l-1.72-2.12zm360.11-132.93c-127.94 0-256.61 42.09-363.54 128.69-247.92 200.76-286.28 565.79-85.53 813.71l364.09 449.6 2.12-1.71 447.49-362.37c119.61-96.85 194.4-235.08 210.6-389.22 16.2-154.12-28.22-304.88-125.07-424.49-114.16-140.97-281.5-214.21-450.16-214.21" transform="matrix(.13333 0 0 -.13333 0 800)"/><path style="fill:#00f;fill-opacity:1;fill-rule:nonzero;stroke:none" d="M1583.01 2554.31c255.65-185.74 614.76-128.86 800.49 126.78 89.61 123.33 125.73 274.76 101.71 426.4-24.02 151.64-105.16 284.49-228.49 374.09l-463.65 336.87-336.85-463.65c-185.74-255.65-128.86-614.75 126.79-800.49zm334.77-114.41c-121.19 0-238.61 37.8-337.97 109.99-258.09 187.51-315.51 550.04-128 808.12l340.06 468.05 2.21-1.6L2259.92 3486c124.51-90.46 206.43-224.58 230.68-377.65 24.24-153.08-12.23-305.95-102.68-430.46-90.46-124.5-224.58-206.42-377.66-230.67-30.91-4.9-61.82-7.32-92.48-7.32" transform="matrix(.13333 0 0 -.13333 0 800)"/><path style="fill:#00f;fill-opacity:1;fill-rule:nonzero;stroke:none" d="M1655.15 2515.48c265.03-172.11 620.65-96.51 792.75 168.5 172.11 265.02 96.52 620.65-168.5 792.76l-480.63 312.13-312.13-480.63c-172.11-265.02-96.52-620.65 168.5-792.76l-1.48-2.29zm311.21-97.75c-107.96 0-217.09 30.13-314.18 93.18-129.08 83.82-217.9 213.46-250.13 365.06-32.22 151.6-3.81 306.17 80.01 435.24l315.1 485.21 2.29-1.49 482.92-313.62c267.54-173.74 343.85-532.75 170.11-800.29-110.69-170.45-296.59-263.29-486.12-263.29" transform="matrix(.13333 0 0 -.13333 0 800)"/><path style="fill:#00f;fill-opacity:1;fill-rule:nonzero;stroke:none" d="m1805.99 3759.65-286.54-496.32c-76.22-132.02-96.32-286.39-56.58-434.69 39.74-148.3 134.32-271.94 266.34-348.16 132.02-76.22 286.4-96.31 434.69-56.58 148.3 39.73 271.94 134.32 348.16 266.34 76.23 132.02 96.32 286.4 56.59 434.69-39.74 148.3-134.33 271.95-266.35 348.17zm207.64-1361.14c-100.06 0-198.58 26.11-287.14 77.25-133.29 76.94-228.77 201.76-268.89 351.47-40.11 149.7-19.82 305.54 57.12 438.82L1804 3767.09l501.03-289.28c133.28-76.94 228.77-201.76 268.88-351.46 40.12-149.71 19.83-305.55-57.12-438.83-76.95-133.29-201.77-228.77-351.48-268.89-50.22-13.46-101.15-20.12-151.68-20.12" transform="matrix(.13333 0 0 -.13333 0 800)"/><path style="fill:#00f;fill-opacity:1;fill-rule:nonzero;stroke:none" d="m1814.74 3730.83-260.18-510.63c-69.2-135.82-81.19-291.04-33.75-437.05 47.44-146.02 148.37-264.54 284.2-333.74h.01c135.81-69.22 291.02-81.22 437.05-33.76 146.01 47.44 264.53 148.37 333.74 284.2 69.21 135.82 81.2 291.04 33.76 437.05-47.45 146.02-148.38 264.55-284.2 333.74zm248.56-1349.19c-89.81 0-178.78 21.13-260.76 62.9-137.13 69.87-239.02 189.52-286.92 336.92-47.89 147.4-35.79 304.09 34.08 441.22l262.65 515.48 2.44-1.23 513.06-261.42c137.12-69.86 239.01-189.52 286.9-336.92 47.89-147.4 35.79-304.09-34.08-441.22-69.87-137.12-189.52-239.02-336.92-286.91-59.27-19.26-120.05-28.82-180.45-28.82" transform="matrix(.13333 0 0 -.13333 0 800)"/><path style="fill:#00f;fill-opacity:1;fill-rule:nonzero;stroke:none" d="M1882.33 2422.33c288.68-128.55 628.11 1.76 756.64 290.45 62 139.26 65.85 294.89 10.83 438.22-55.02 143.33-162.02 256.41-301.27 318.41l-523.55 233.1-233.1-523.55c-128.52-288.67 1.77-628.1 290.45-756.63zm232.26-54.99c-78.52 0-158.24 16.06-234.48 50.01-291.43 129.75-422.97 472.4-293.21 763.83l235.32 528.53 528.52-235.32c140.6-62.59 248.61-176.74 304.15-321.43 55.54-144.7 51.65-301.8-10.94-442.4-95.81-215.19-307.73-343.22-529.36-343.22" transform="matrix(.13333 0 0 -.13333 0 800)"/><path style="fill:#00f;fill-opacity:1;fill-rule:nonzero;stroke:none" d="M1960.96 2399.35c295-113.25 627.16 34.63 740.4 329.64 54.63 142.32 50.33 297.94-12.12 438.19-62.44 140.26-175.21 247.59-317.53 302.22l-535.02 205.38-205.38-535.03c-113.24-295.01 34.64-627.16 329.65-740.4l-.98-2.55zm204.73-43.54c-68.8 0-138.72 12.35-206.68 38.44-297.82 114.33-447.11 449.63-332.79 747.45l207.33 540.12 540.12-207.33c143.67-55.16 257.52-163.5 320.56-305.09 63.03-141.58 67.38-298.68 12.23-442.36-88.24-229.86-308.1-371.23-540.77-371.23" transform="matrix(.13333 0 0 -.13333 0 800)"/><path style="fill:#00f;fill-opacity:1;fill-rule:nonzero;stroke:none" d="m1849.84 3647.68-177.1-545.04c-47.11-144.97-34.67-300.15 35.04-436.95 69.69-136.8 187.92-238.07 332.9-285.18 58.62-19.05 118.16-28.1 176.7-28.11 241.63-.01 466.83 154.12 545.44 396.05 97.65 300.54-67.41 624.49-367.94 722.14zm367.27-1300.73c-59.79 0-119.76 9.41-178.11 28.37-146.37 47.56-265.73 149.8-336.09 287.89-70.36 138.09-82.91 294.76-35.36 441.12l178.78 550.23 2.6-.85 547.63-177.94c146.37-47.56 265.73-149.79 336.09-287.88 70.36-138.1 82.91-294.75 35.36-441.12-47.56-146.37-149.8-265.73-287.89-336.08-83.05-42.32-172.81-63.74-263.01-63.74" transform="matrix(.13333 0 0 -.13333 0 800)"/><path style="fill:#00f;fill-opacity:1;fill-rule:nonzero;stroke:none" d="m1864.38 3621.32-148.33-553.56c-39.45-147.25-18.91-301.57 57.86-434.53 76.76-132.96 200.13-227.9 347.38-267.36 147.24-39.45 301.56-18.91 434.52 57.86 132.96 76.76 227.91 200.13 267.36 347.38 39.46 147.25 18.91 301.56-57.85 434.52-76.76 132.96-200.13 227.9-347.37 267.36zm405.1-1280.49c-49.43-.01-99.63 6.39-149.6 19.78-148.66 39.83-273.2 135.68-350.69 269.9-77.5 134.22-98.24 290.01-58.41 438.66l149.75 558.82 558.83-149.73c308.13-82.56 491.65-400.43 409.09-708.56-69.18-258.17-303.55-428.86-558.97-428.87" transform="matrix(.13333 0 0 -.13333 0 800)"/><path style="fill:#00f;fill-opacity:1;fill-rule:nonzero;stroke:none" d="m1880.28 3595.76-119.15-560.57c-65.7-309.1 132.32-614.03 441.41-679.72h.01c149.12-31.7 302.14-3.1 430.9 80.52 128.76 83.61 217.12 211.78 248.81 360.89 65.7 309.1-132.31 614.03-441.41 679.72zm441.55-1258.33c-39.74-.01-80.02 4.11-120.42 12.7-150.53 32-279.92 121.21-364.34 251.19-84.41 129.98-113.27 284.47-81.27 435l120.28 565.9 2.67-.56 563.24-119.72c312.03-66.33 511.93-374.15 445.61-686.19-57.74-271.65-298.53-458.3-565.77-458.32" transform="matrix(.13333 0 0 -.13333 0 800)"/><path style="fill:#00f;fill-opacity:1;fill-rule:nonzero;stroke:none" d="m1897.51 3571.06-89.66-566.04c-49.43-312.12 164.27-606.25 476.39-655.68 150.57-23.86 301.89 12.71 426.09 102.95 124.21 90.25 205.74 222.87 229.59 373.42 23.85 150.57-12.71 301.9-102.95 426.11-90.24 124.2-222.86 205.74-373.43 229.58zm476.76-1234.29c-30.18 0-60.54 2.38-90.88 7.18-152.01 24.08-285.89 106.39-376.99 231.77-91.1 125.38-128.01 278.14-103.93 430.15l90.5 571.43 2.7-.43 568.72-90.07c152.01-24.09 285.89-106.39 376.99-231.78 91.09-125.38 128.01-278.15 103.93-430.15-24.07-152.01-106.39-285.9-231.77-376.99-100.36-72.91-218.26-111.11-339.27-111.11" transform="matrix(.13333 0 0 -.13333 0 800)"/><path style="fill:#00f;fill-opacity:1;fill-rule:nonzero;stroke:none" d="m1916 3547.29-59.91-569.95c-15.93-151.61 28.5-300.81 125.12-420.12s233.32-193.8 384.93-209.73c151.62-15.96 300.81 28.5 420.12 125.11 119.31 96.62 193.79 233.33 209.73 384.93 15.93 151.61-28.5 300.81-125.11 420.12-96.62 119.31-233.32 193.8-384.93 209.73zm510.48-1208.42c-20.15 0-40.44 1.04-60.91 3.19-153.06 16.09-291.06 91.28-388.6 211.72-97.53 120.45-142.39 271.07-126.3 424.13l60.47 575.37 2.72-.28 572.66-60.19c153.05-16.09 291.06-91.28 388.59-211.72 97.54-120.45 142.4-271.07 126.31-424.13-31.2-296.79-282.87-518.08-574.94-518.09" transform="matrix(.13333 0 0 -.13333 0 800)"/><path style="fill:#00f;fill-opacity:1;fill-rule:nonzero;stroke:none" d="m1935.7 3524.53-29.99-572.31c-7.98-152.23 44.2-298.91 146.94-413 102.72-114.09 243.14-181.32 395.37-189.3 10.15-.53 20.29-.79 30.34-.79 302.38-.02 555.95 237.69 571.96 543.11 16.54 315.57-226.75 585.75-542.31 602.29zm542.66-1180.85c-10.16 0-20.36.26-30.62.79-153.69 8.06-295.44 75.92-399.15 191.1-103.7 115.18-156.38 263.24-148.33 416.93l30.28 577.76 2.72-.14 575.04-30.14c318.57-16.7 564.16-289.46 547.47-608.03-16.16-308.31-272.18-548.27-577.41-548.27" transform="matrix(.13333 0 0 -.13333 0 800)"/><path style="fill:#00f;fill-opacity:1;fill-rule:nonzero;stroke:none" d="M1956.58 3502.83v-573.1c0-316 257.08-573.09 573.09-573.09 316 0 573.08 257.09 573.08 573.09 0 316.01-257.08 573.1-573.08 573.1zm573.09-1151.64c-319.01 0-578.55 259.53-578.55 578.54v578.54h578.55c319 0 578.54-259.52 578.54-578.54 0-319.01-259.54-578.54-578.54-578.54" transform="matrix(.13333 0 0 -.13333 0 800)"/><path style="fill:#00f;fill-opacity:1;fill-rule:nonzero;stroke:none" d="m1978.56 3482.24 29.99-572.3c16.54-315.58 286.79-558.97 602.3-542.31 315.57 16.54 558.84 286.72 542.31 602.3-7.98 152.23-75.21 292.65-189.3 395.38-114.09 102.72-260.75 154.97-413 146.93zm601.96-1120.85c-305.27 0-561.25 239.94-577.42 548.26l-30.28 577.76 2.73.14 575.03 30.14c153.62 8.09 301.75-44.62 416.93-148.33 115.17-103.7 183.04-245.45 191.1-399.15 16.69-318.57-228.9-591.33-547.47-608.02-10.25-.54-20.48-.8-30.62-.8" transform="matrix(.13333 0 0 -.13333 0 800)"/><path style="fill:#00f;fill-opacity:1;fill-rule:nonzero;stroke:none" d="m2001.59 3462.85 59.9-569.97c33.03-314.26 315.61-542.98 629.85-510.03l.29-2.72-.29 2.73c151.61 15.92 288.31 90.41 384.93 209.72s141.05 268.52 125.12 420.13c-15.94 151.6-90.42 288.3-209.73 384.92-119.31 96.62-268.51 141.05-420.12 125.11zm629.36-1088.63c-131.69 0-258.76 44.96-363.16 129.51-120.45 97.53-195.64 235.53-211.72 388.59l-60.48 575.37 2.72.3 572.65 60.18c317.28 33.21 602.5-197.64 635.85-514.9 16.09-153.06-28.76-303.68-126.3-424.12-97.53-120.45-235.54-195.64-388.59-211.72l-.29 2.71.29-2.71a581.4 581.4 0 0 0-60.97-3.21" transform="matrix(.13333 0 0 -.13333 0 800)"/><path style="fill:#00f;fill-opacity:1;fill-rule:nonzero;stroke:none" d="m2025.6 3444.68 89.64-566.04c49.44-312.1 343.55-525.86 655.69-476.38l.43-2.7-.43 2.7c312.12 49.43 525.82 343.57 476.39 655.69-49.44 312.09-343.58 525.86-655.69 476.37zm655.36-1054.98c-279.48-.03-526.03 203.52-571.1 488.09l-90.5 571.41 2.69.44 568.73 90.07c315.09 49.87 612.01-165.83 661.92-480.92 49.9-315.07-165.83-612.02-480.91-661.93-30.5-4.82-60.88-7.16-90.83-7.16" transform="matrix(.13333 0 0 -.13333 0 800)"/><path style="fill:#00f;fill-opacity:1;fill-rule:nonzero;stroke:none" d="m2050.53 3427.78 119.15-560.57c31.69-149.11 120.06-277.27 248.82-360.88 128.75-83.62 281.78-112.2 430.89-80.52h.01c149.11 31.69 277.27 120.06 360.89 248.82s112.21 281.79 80.52 430.9c-31.69 149.11-120.06 277.27-248.82 360.9-128.76 83.61-281.8 112.18-430.9 80.51zm679.58-1020.02c-110.57 0-219.17 32.02-314.58 93.99-129.98 84.41-219.19 213.8-251.19 364.34l-120.29 565.9 2.67.56 563.24 119.72c150.55 32.01 305.02 3.13 435-81.27 129.98-84.41 219.19-213.81 251.18-364.35 32-150.52 3.14-305.01-81.27-434.99-84.41-129.98-213.8-219.18-364.34-251.18-40.03-8.52-80.36-12.72-120.42-12.72" transform="matrix(.13333 0 0 -.13333 0 800)"/><path style="fill:#00f;fill-opacity:1;fill-rule:nonzero;stroke:none" d="m2076.3 3412.23 148.33-553.57c81.79-305.22 396.64-486.99 701.89-405.23 147.25 39.46 270.62 134.4 347.38 267.36 76.76 132.96 97.31 287.28 57.85 434.53-81.78 305.22-396.62 486.98-701.88 405.24zm702.03-983.84c-255.43 0-489.79 170.68-558.97 428.86l-149.74 558.83 558.84 149.74c308.14 82.59 626-100.94 708.56-409.09 39.83-148.66 19.09-304.44-58.4-438.66-77.49-134.22-202.03-230.08-350.69-269.9-49.95-13.39-100.18-19.78-149.6-19.78" transform="matrix(.13333 0 0 -.13333 0 800)"/><path style="fill:#00f;fill-opacity:1;fill-rule:nonzero;stroke:none" d="m2102.86 3398.04 177.1-545.04c97.64-300.54 421.57-465.57 722.13-367.95l.84-2.59-.84 2.59c144.98 47.11 263.21 148.39 332.91 285.18 69.7 136.79 82.14 291.97 35.04 436.95-47.11 144.98-148.39 263.22-285.18 332.92-136.79 69.7-291.97 82.15-436.96 35.03zm722.54-946.54c-243.94 0-471.27 155.58-550.63 399.81l-178.78 550.23 2.6.84 547.63 177.94c146.35 47.55 303.02 35 441.11-35.36 138.09-70.36 240.34-189.71 287.89-336.08 98.58-303.4-68.05-630.43-371.45-729.01-59.16-19.23-119.28-28.37-178.37-28.37" transform="matrix(.13333 0 0 -.13333 0 800)"/><path style="fill:#00f;fill-opacity:1;fill-rule:nonzero;stroke:none" d="m2130.13 3385.26 205.37-535.02c54.63-142.32 161.96-255.09 302.22-317.53 140.24-62.45 295.87-66.76 438.18-12.12 142.32 54.62 255.09 161.95 317.53 302.21 62.45 140.25 66.75 295.87 12.12 438.19-113.24 295.01-445.39 442.9-740.4 329.65zm741.52-908.19c-80.21 0-160.39 16.92-236.15 50.65-141.59 63.04-249.94 176.88-305.09 320.56l-207.33 540.11 540.12 207.34c297.83 114.32 633.13-34.96 747.44-332.79 55.15-143.68 50.81-300.77-12.22-442.36-63.04-141.59-176.88-249.93-320.56-305.08-66.8-25.65-136.52-38.43-206.21-38.43" transform="matrix(.13333 0 0 -.13333 0 800)"/><path style="fill:#00f;fill-opacity:1;fill-rule:nonzero;stroke:none" d="m2158.02 3373.93 233.1-523.55c62-139.27 175.08-246.25 318.41-301.28 143.34-55.02 298.96-51.16 438.22 10.84h.01c139.26 62 246.26 175.08 301.27 318.41 55.02 143.33 51.18 298.96-10.83 438.22-62 139.27-175.08 246.27-318.41 301.29-143.32 55.01-298.96 51.16-438.22-10.84zm758.18-868.92c-70.28 0-140.82 12.97-208.62 39-144.69 55.55-258.85 163.56-321.44 304.15l-235.32 528.53L2679.35 3612c140.59 62.61 297.7 66.48 442.39 10.95 144.69-55.55 258.85-163.56 321.44-304.16 62.6-140.6 66.49-297.7 10.94-442.4-55.53-144.69-163.55-258.84-304.14-321.43-74.71-33.26-154.08-49.95-233.78-49.95" transform="matrix(.13333 0 0 -.13333 0 800)"/><path style="fill:#00f;fill-opacity:1;fill-rule:nonzero;stroke:none" d="m2186.47 3364.06 260.18-510.62c143.45-281.57 489.24-393.92 770.8-250.45l1.24-2.44-1.24 2.44c281.56 143.46 393.91 489.24 250.45 770.79-69.21 135.84-187.74 236.77-333.75 284.22-146.02 47.43-301.23 35.45-437.05-33.76zm771.76-828.93c-210.82 0-414.36 115.48-516.44 315.83l-262.65 515.49 2.42 1.24 513.06 261.41c137.13 69.86 293.82 81.97 441.21 34.08 147.41-47.89 267.06-149.78 336.93-286.91 144.83-284.24 31.41-633.31-252.83-778.15-83.88-42.73-173.44-62.99-261.7-62.99" transform="matrix(.13333 0 0 -.13333 0 800)"/><path style="fill:#00f;fill-opacity:1;fill-rule:nonzero;stroke:none" d="m2215.4 3355.71 286.54-496.31c158.01-273.66 509.19-367.78 782.85-209.77h.01c132.01 76.22 226.61 199.86 266.34 348.17 39.74 148.29 19.65 302.66-56.58 434.68-157.99 273.67-509.17 367.78-782.85 209.78zm783.83-788.19c-200.11 0-394.97 103.76-502.01 289.15l-289.27 501.03 2.36 1.36 498.67 287.91c276.28 159.52 630.8 64.51 790.3-211.76 76.96-133.27 97.24-289.12 57.13-438.82-40.11-149.71-135.6-274.54-268.89-351.48-90.87-52.46-190.21-77.39-288.29-77.39" transform="matrix(.13333 0 0 -.13333 0 800)"/><path style="fill:#00f;fill-opacity:1;fill-rule:nonzero;stroke:none" d="m2244.72 3348.88 312.13-480.64c83.03-127.85 211.45-215.84 361.62-247.76 150.18-31.9 303.29-3.77 431.14 79.25v.01c127.85 83.03 215.84 211.46 247.76 361.62 31.92 150.17 3.77 303.28-79.25 431.13-172.11 265.02-527.74 340.59-792.77 168.51zm794.96-746.67c-40.63 0-81.58 4.27-122.34 12.94-151.59 32.22-281.24 121.05-365.06 250.12l-315.1 485.2 485.21 315.1c267.52 173.73 626.55 97.43 800.3-170.1 173.75-267.54 97.43-626.56-170.11-800.3l-1.48 2.28 1.48-2.28c-94.37-61.29-202.39-92.96-312.9-92.96" transform="matrix(.13333 0 0 -.13333 0 800)"/><path style="fill:#00f;fill-opacity:1;fill-rule:nonzero;stroke:none" d="m2274.37 3343.59 336.85-463.64c185.74-255.65 544.84-312.54 800.49-126.79v.01c123.33 89.6 204.48 222.45 228.49 374.09 24.02 151.64-12.1 303.07-101.71 426.39-89.59 123.33-222.45 204.48-374.09 228.5-151.65 24.03-303.06-12.1-426.39-101.71zm802.56-704.83c-30.66 0-61.55 2.41-92.47 7.31-153.07 24.24-287.19 106.16-377.66 230.66l-340.05 468.06 2.2 1.61 465.85 338.46c124.51 90.45 277.37 126.9 430.45 102.67 153.08-24.24 287.2-106.16 377.66-230.66 90.46-124.51 126.93-277.39 102.68-430.47-24.25-153.07-106.17-287.18-230.67-377.65-99.36-72.18-216.81-109.99-337.99-109.99" transform="matrix(.13333 0 0 -.13333 0 800)"/><path style="fill:#00f;fill-opacity:1;fill-rule:nonzero;stroke:none" d="m2304.24 3339.86 360.66-445.37c95.93-118.48 232.86-192.56 385.54-208.61 152.7-16.03 302.02 27.95 420.49 123.89 245.58 198.87 283.58 560.45 84.72 806.02-198.87 245.59-560.45 283.6-806.04 84.72zm807.74-662.67c-20.6 0-41.32 1.08-62.11 3.27-154.13 16.19-292.36 90.99-389.21 210.59l-364.09 449.61 2.12 1.72 447.5 362.38c247.92 200.74 612.93 162.38 813.69-85.52 200.76-247.93 162.4-612.95-85.52-813.72-103.47-83.78-230.26-128.33-362.38-128.33" transform="matrix(.13333 0 0 -.13333 0 800)"/><path style="fill:#00f;fill-opacity:1;fill-rule:nonzero;stroke:none" d="m2334.28 3337.7 383.47-425.89c102-113.29 242.62-180.1 395.93-188.13 153.32-8.1 300.14 43.7 413.43 145.71 113.28 102 180.1 242.61 188.14 395.93 8.03 153.32-43.72 300.15-145.72 413.43-102.01 113.28-242.62 180.1-395.94 188.14-153.25 7.87-300.13-43.72-413.42-145.73zm810.39-620.29c-10.39 0-20.82.27-31.28.82-154.77 8.11-296.71 75.56-399.69 189.93l-387.13 429.94 2.03 1.83 427.92 385.29c114.37 102.98 262.53 155.32 417.36 147.11 154.77-8.11 296.72-75.56 399.69-189.93 102.98-114.37 155.23-262.6 147.12-417.36-8.11-154.78-75.56-296.73-189.93-399.7-106.65-96.02-242.72-147.93-386.09-147.93" transform="matrix(.13333 0 0 -.13333 0 800)"/><path style="fill:#00f;fill-opacity:1;fill-rule:nonzero;stroke:none" d="m2364.38 3337.11 405.23-405.23c107.8-107.8 251.71-167.16 405.24-167.16s297.45 59.36 405.24 167.16c223.44 223.44 223.44 587.01 0 810.47-223.44 223.42-587.02 223.44-810.48 0zm810.48-577.84c-154.99 0-300.28 59.92-409.1 168.75l-409.09 409.09 1.93 1.93 407.16 407.16c225.58 225.58 592.62 225.57 818.18 0 225.58-225.57 225.58-592.6.01-818.18l-1.93 1.93 1.93-1.93c-108.83-108.83-254.11-168.75-409.09-168.75" transform="matrix(.13333 0 0 -.13333 0 800)"/><path style="fill:#212b52;fill-opacity:1;fill-rule:nonzero;stroke:none" d="M3425.93 2145.29h-54.61v-139.88h-15.11v139.88h-54.61v13.38h124.33zm-297.29-62.17c0 9.21 1.62 18.39 4.86 27.52 3.23 9.14 7.95 17.31 14.14 24.5 6.18 7.2 13.81 13.06 22.88 17.59 9.06 4.54 19.35 6.8 30.87 6.8 13.67 0 25.36-3.09 35.07-9.27 9.72-6.2 16.87-14.25 21.48-24.18l-11.87-7.34c-2.45 5.03-5.43 9.28-8.96 12.73-3.52 3.45-7.3 6.26-11.33 8.42s-8.21 3.71-12.52 4.64c-4.32.94-8.57 1.41-12.74 1.41-9.21 0-17.34-1.88-24.39-5.61-7.05-3.75-12.99-8.64-17.81-14.68-4.82-6.05-8.45-12.85-10.9-20.4-2.45-7.56-3.67-15.22-3.67-22.99 0-8.49 1.48-16.62 4.43-24.39 2.95-7.77 6.97-14.65 12.09-20.62a58.125 58.125 0 0 1 18.13-14.25c6.98-3.52 14.57-5.28 22.77-5.28 4.32 0 8.74.54 13.27 1.62 4.54 1.07 8.93 2.8 13.17 5.18 4.25 2.37 8.17 5.32 11.77 8.84 3.59 3.53 6.61 7.81 9.06 12.85l12.52-6.47c-2.44-5.76-5.9-10.83-10.36-15.22-4.46-4.39-9.42-8.1-14.89-11.12a74.35 74.35 0 0 0-17.38-6.91c-6.12-1.58-12.12-2.37-18.03-2.37-10.5 0-20.14 2.3-28.92 6.91-8.78 4.6-16.33 10.61-22.66 18.02-6.33 7.41-11.27 15.83-14.79 25.26-3.53 9.42-5.29 19.03-5.29 28.81zm-48.62-64.32v-13.39h-102.96v153.26h101.02v-13.38h-85.92v-55.26h74.91v-12.73h-74.91v-58.5h87.86zm-248.94 5.83c3.16-2.16 7.23-4.04 12.19-5.62 4.97-1.58 10.55-2.37 16.73-2.37 7.77 0 14 1.4 18.67 4.21 4.68 2.8 8.24 6.94 10.69 12.41 2.45 5.47 4.03 12.19 4.75 20.18.72 7.99 1.08 17.09 1.08 27.31v77.92h15.11v-77.92c0-11.66-.54-22.27-1.62-31.84s-3.35-17.74-6.8-24.5c-3.45-6.77-8.49-12.02-15.11-15.76-6.62-3.74-15.54-5.61-26.77-5.61-12.95 0-24.03 3.16-33.24 9.5l4.32 12.09zm-175.55 57.41c0-8.34 1.37-16.37 4.1-24.07 2.74-7.7 6.62-14.53 11.66-20.5 5.04-5.97 11.01-10.73 17.92-14.25 6.9-3.52 14.6-5.29 23.09-5.29 8.64 0 16.48 1.87 23.53 5.61 7.05 3.75 13.02 8.64 17.92 14.68 4.89 6.05 8.67 12.88 11.33 20.51 2.66 7.63 3.99 15.4 3.99 23.31 0 8.35-1.4 16.37-4.21 24.07-2.8 7.7-6.73 14.5-11.76 20.4a58.1 58.1 0 0 1-17.92 14.14c-6.9 3.52-14.53 5.29-22.88 5.29-8.63 0-16.48-1.84-23.53-5.51-7.05-3.67-13.02-8.53-17.91-14.57-4.9-6.04-8.67-12.88-11.34-20.5-2.66-7.63-3.99-15.4-3.99-23.32zm56.77-77.71c-10.65 0-20.4 2.2-29.25 6.59-8.85 4.38-16.44 10.22-22.77 17.48-6.33 7.27-11.23 15.58-14.68 24.93-3.45 9.36-5.18 18.93-5.18 28.71 0 10.22 1.84 20.01 5.5 29.36 3.67 9.35 8.75 17.63 15.22 24.82 6.48 7.2 14.11 12.91 22.88 17.16 8.78 4.25 18.28 6.37 28.5 6.37 10.65 0 20.4-2.26 29.25-6.8 8.85-4.53 16.4-10.47 22.66-17.81 6.26-7.34 11.12-15.65 14.57-24.93 3.45-9.28 5.18-18.74 5.18-28.38 0-10.22-1.84-20.01-5.5-29.36-3.67-9.36-8.71-17.59-15.11-24.72-6.41-7.12-14-12.8-22.78-17.05-8.77-4.24-18.27-6.37-28.49-6.37zm-217.85 71.02h50.08c4.46 0 8.52.97 12.19 2.91 3.67 1.95 6.8 4.57 9.39 7.88 2.59 3.31 4.6 7.05 6.05 11.23 1.43 4.17 2.15 8.56 2.15 13.17 0 4.6-.83 9.03-2.48 13.27-1.66 4.25-3.89 7.95-6.69 11.11a31.964 31.964 0 0 1-9.93 7.56c-3.81 1.87-7.81 2.81-11.98 2.81h-48.78v-69.94zm-15.11-69.94v153.26h64.76c6.61 0 12.69-1.4 18.23-4.21 5.54-2.81 10.33-6.47 14.36-11.01 4.02-4.53 7.16-9.68 9.39-15.43 2.22-5.75 3.35-11.59 3.35-17.48 0-5.61-.84-10.98-2.49-16.08-1.66-5.12-3.96-9.72-6.91-13.82s-6.51-7.56-10.68-10.36c-4.17-2.81-8.85-4.72-14.03-5.72l37.56-59.15h-17.06l-36.04 56.56h-45.33v-56.56h-15.11zm-149.43 69.94h49c4.46 0 8.52.97 12.19 2.91a29.88 29.88 0 0 1 9.39 7.77c2.59 3.24 4.61 6.98 6.05 11.23 1.44 4.25 2.16 8.67 2.16 13.28 0 4.75-.83 9.24-2.48 13.48-1.66 4.25-3.89 7.96-6.7 11.12-2.8 3.17-6.11 5.65-9.93 7.45-3.81 1.8-7.8 2.7-11.98 2.7h-47.7v-69.94zm-15.11-69.94v153.26h63.46c6.62 0 12.7-1.4 18.24-4.21 5.54-2.81 10.33-6.47 14.35-11.01 4.03-4.53 7.2-9.68 9.5-15.43s3.46-11.59 3.46-17.48c0-6.34-1.08-12.42-3.24-18.24-2.16-5.83-5.18-10.98-9.07-15.44-3.88-4.46-8.52-8.06-13.92-10.79-5.4-2.74-11.4-4.1-18.02-4.1h-49.65v-56.56h-15.11M3079.66 1845.24v62.84l-27.92-48.61h-4.42l-27.91 48.61v-62.84h-7.55v76.53h7.76l29.86-52.38 30.07 52.38h7.65v-76.53zm-133.25 6.25c4.81 0 8.82.92 12.02 2.76 3.19 1.83 5.74 4.23 7.65 7.21 1.9 2.99 3.23 6.38 3.99 10.19.75 3.81 1.13 7.65 1.13 11.54v38.58h7.54v-38.58c0-5.18-.57-10.08-1.72-14.72-1.15-4.63-3-8.71-5.55-12.23-2.55-3.52-5.87-6.33-9.97-8.41-4.1-2.08-9.09-3.13-14.98-3.13-6.04 0-11.12 1.1-15.25 3.29-4.13 2.19-7.46 5.09-9.97 8.68-2.52 3.59-4.32 7.69-5.39 12.29-1.08 4.59-1.62 9.34-1.62 14.23v38.58h7.44v-38.58c0-4.03.39-7.95 1.18-11.75.79-3.81 2.14-7.19 4.05-10.13 1.9-2.95 4.43-5.32 7.59-7.12 3.16-1.8 7.12-2.7 11.86-2.7zm-66.85 55.94c-2.16 2.45-5.03 4.42-8.63 5.93-3.59 1.51-7.68 2.27-12.28 2.27-6.76 0-11.68-1.28-14.77-3.83s-4.63-6.02-4.63-10.4c0-2.3.41-4.18 1.24-5.66.82-1.47 2.1-2.75 3.82-3.82 1.73-1.08 3.93-2.02 6.63-2.81 2.7-.79 5.88-1.58 9.54-2.37 4.09-.86 7.78-1.83 11.05-2.91 3.27-1.08 6.05-2.42 8.35-4.04s4.06-3.58 5.28-5.87c1.22-2.3 1.83-5.18 1.83-8.63 0-3.52-.68-6.57-2.04-9.16-1.37-2.59-3.27-4.74-5.72-6.47-2.44-1.72-5.35-3-8.73-3.82-3.38-.83-7.07-1.24-11.1-1.24-11.85 0-22.1 3.7-30.71 11.1l3.77 6.14c1.36-1.44 3-2.8 4.9-4.09 1.9-1.3 4.02-2.43 6.36-3.4 2.34-.97 4.83-1.72 7.49-2.26 2.66-.54 5.46-.81 8.41-.81 6.11 0 10.86 1.09 14.28 3.29 3.41 2.19 5.12 5.51 5.12 9.97 0 2.37-.49 4.36-1.46 5.98s-2.42 3.02-4.36 4.2c-1.94 1.19-4.35 2.21-7.22 3.08-2.88.85-6.22 1.72-10.03 2.58-4.02.93-7.54 1.9-10.56 2.91-3.02 1.01-5.57 2.27-7.65 3.78-2.09 1.5-3.65 3.32-4.69 5.44-1.04 2.12-1.56 4.72-1.56 7.81 0 3.52.66 6.66 1.99 9.43 1.33 2.77 3.21 5.07 5.66 6.9 2.44 1.83 5.32 3.23 8.62 4.2 3.31.97 6.97 1.46 10.99 1.46 5.1 0 9.65-.77 13.64-2.32 3.99-1.54 7.6-3.72 10.83-6.52l-3.66-6.04zm-119.34-27.26h24.46c2.23 0 4.26.48 6.09 1.45s3.39 2.26 4.69 3.88c1.29 1.62 2.3 3.49 3.02 5.6a20.52 20.52 0 0 1 1.08 6.63c0 2.37-.42 4.62-1.24 6.74-.83 2.12-1.95 3.97-3.35 5.55-1.4 1.58-3.05 2.82-4.96 3.72-1.9.9-3.89 1.35-5.97 1.35h-23.82v-34.92zm-7.55-34.93v76.53h31.69c3.3 0 6.34-.7 9.1-2.1 2.77-1.4 5.16-3.23 7.17-5.5 2.01-2.26 3.6-4.83 4.75-7.71 1.14-2.87 1.72-5.78 1.72-8.73 0-3.16-.54-6.19-1.61-9.1-1.08-2.91-2.59-5.48-4.53-7.71-1.94-2.23-4.26-4.02-6.95-5.39-2.7-1.36-5.7-2.05-9.01-2.05h-24.78v-28.24h-7.55zm-41.85 0v76.53h7.55v-76.53h-7.55zm-73.45 0v62.84l-27.92-48.61h-4.42l-27.91 48.61v-62.84h-7.55v76.53h7.76l29.86-52.38 30.07 52.38h7.65v-76.53h-7.54zm-97.14 6.69v-6.69h-51.41v76.53h50.44v-6.68h-42.9v-27.6h37.4v-6.35h-37.4v-29.21h43.87zm-145 31.58c0-4.17.68-8.17 2.05-12.02 1.37-3.85 3.31-7.26 5.82-10.24 2.52-2.98 5.5-5.35 8.95-7.11 3.44-1.77 7.29-2.65 11.53-2.65 4.31 0 8.23.94 11.75 2.81 3.52 1.87 6.5 4.31 8.94 7.33 2.45 3.02 4.33 6.43 5.66 10.24 1.33 3.8 1.99 7.69 1.99 11.64 0 4.16-.7 8.17-2.1 12.02-1.4 3.84-3.36 7.23-5.87 10.18-2.51 2.94-5.49 5.3-8.94 7.06-3.45 1.76-7.27 2.64-11.43 2.64-4.31 0-8.23-.92-11.75-2.75-3.52-1.83-6.5-4.25-8.94-7.27-2.45-3.02-4.34-6.43-5.66-10.24-1.33-3.81-2-7.69-2-11.64zm28.35-38.81c-5.32 0-10.19 1.1-14.6 3.29-4.43 2.19-8.21 5.1-11.38 8.73-3.16 3.63-5.6 7.78-7.33 12.45-1.72 4.67-2.58 9.45-2.58 14.34 0 5.1.92 9.98 2.75 14.66 1.83 4.66 4.36 8.8 7.6 12.39 3.23 3.6 7.04 6.45 11.42 8.57s9.12 3.18 14.23 3.18c5.32 0 10.19-1.13 14.6-3.4 4.42-2.26 8.19-5.22 11.32-8.89 3.12-3.66 5.55-7.81 7.28-12.45 1.72-4.63 2.58-9.36 2.58-14.17 0-5.1-.92-9.99-2.75-14.66s-4.34-8.78-7.54-12.34c-3.2-3.56-6.99-6.39-11.37-8.51-4.39-2.12-9.13-3.19-14.23-3.19zm-108.78.54v76.53h7.54v-69.84h44.19v-6.69h-51.73" transform="matrix(.13333 0 0 -.13333 0 800)"/><path style="fill:#545c7a;fill-opacity:1;fill-rule:evenodd;stroke:none" d="M4370.41 1087.86h566.48v566.48h-566.48v-566.48" transform="matrix(.13333 0 0 -.13333 0 800)"/><path style="fill:#00f;fill-opacity:1;fill-rule:evenodd;stroke:none" d="M4370.42 3709.96h208.4v208.4h-208.4v-208.4M4370.42 4395.17h208.4v208.4h-208.4v-208.4" transform="matrix(.13333 0 0 -.13333 0 800)"/><path style="fill:#ec1f1f;fill-opacity:1;fill-rule:evenodd;stroke:none" d="m2314.79 1017.4 38.34-66.388 38.33-66.391h-153.32l38.33 66.391 38.32 66.388" transform="matrix(.13333 0 0 -.13333 0 800)"/><path style="fill:#ec1f1f;fill-opacity:1;fill-rule:nonzero;stroke:none" d="m730.699 3338.71 877.821-1520.43 877.82 1520.43zm877.821-1561.34L695.27 3359.16h1826.5l-913.25-1581.79" transform="matrix(.13333 0 0 -.13333 0 800)"/><path style="fill:#ec1f1f;fill-opacity:1;fill-rule:nonzero;stroke:none" d="M2524.6 3364.07h920.43l-460.22 797.12zm955.87-20.46h-991.3l495.64 858.49 495.66-858.49" transform="matrix(.13333 0 0 -.13333 0 800)"/><path style="fill:#ec1f1f;fill-opacity:1;fill-rule:evenodd;stroke:none" d="m2314.79 1280.06 38.34-66.39 38.33-66.39h-153.32l38.33 66.39 38.32 66.39M2314.79 1542.71l38.34-66.38 38.33-66.39h-153.32l38.33 66.39 38.32 66.38M2594.4 4790.59l-43.24 24.97-43.24 24.96v-99.86l43.24 24.97 43.24 24.96M2765.48 4790.59l-43.24 24.97-43.24 24.96v-99.86l43.24 24.97 43.24 24.96M2936.55 4790.59l-43.24 24.97-43.24 24.96v-99.86l43.24 24.97 43.24 24.96" transform="matrix(.13333 0 0 -.13333 0 800)"/><path style="fill:#fff;fill-opacity:1;fill-rule:nonzero;stroke:none" d="M5039.51 3200.93H2265.96v2.73h2773.55v-2.73" transform="matrix(.13333 0 0 -.13333 0 800)"/><path style="fill:#fff;fill-opacity:1;fill-rule:evenodd;stroke:none" d="m1373.23 2352.33-662.824 234.38h662.824z" transform="matrix(.13333 0 0 -.13333 0 800)"/><path style="fill:#fff;fill-opacity:1;fill-rule:nonzero;stroke:none" d="m4326.38 1332.11-2.64 4.06 38.27 24.83 5.28-8.14-38.27-24.82zm40.91 20.75v8.14l6.27-4.06-6.27-4.08zm0 0-5.28 8.14v-8.14l-38.26 24.81 5.27 8.14 38.27-24.81zm-10.16-.02h-526.47v8.18h526.47v-8.18M4326.38 2648.29l-2.64 4.06 38.27 24.83 5.28-8.13-38.27-24.83zm40.91 20.76v8.13l6.27-4.06-6.27-4.07zm0 0-5.28 8.13v-8.13l-38.26 24.8 5.27 8.14 38.27-24.81zm-10.16-.03h-526.47v8.19h526.47v-8.19" transform="matrix(.13333 0 0 -.13333 0 800)"/><path style="fill:#545c7a;fill-opacity:1;fill-rule:evenodd;stroke:none" d="M980.734 4466.15c69.946 0 126.986 57.05 126.986 126.99 0 69.95-57.04 126.99-126.986 126.99-69.945 0-126.992-57.04-126.992-126.99 0-69.94 57.047-126.99 126.992-126.99" transform="matrix(.13333 0 0 -.13333 0 800)"/><path style="fill:#ec1f1f;fill-opacity:1;fill-rule:evenodd;stroke:none" d="M4065.21 1824.54c69.94 0 126.99 57.05 126.99 126.99 0 69.95-57.05 126.99-126.99 126.99-69.95 0-126.99-57.04-126.99-126.99 0-69.94 57.04-126.99 126.99-126.99" transform="matrix(.13333 0 0 -.13333 0 800)"/><path style="fill:#545c7a;fill-opacity:1;fill-rule:evenodd;stroke:none" d="M4016.05 4615.54c15.83 0 28.73 12.9 28.73 28.73 0 15.82-12.9 28.73-28.73 28.73-15.82 0-28.73-12.91-28.73-28.73 0-15.83 12.91-28.73 28.73-28.73M4016.05 4898.54c15.83 0 28.73 12.9 28.73 28.73 0 15.82-12.9 28.73-28.73 28.73-15.82 0-28.73-12.91-28.73-28.73 0-15.83 12.91-28.73 28.73-28.73M4016.05 5181.54c15.83 0 28.73 12.91 28.73 28.73 0 15.83-12.9 28.73-28.73 28.73-15.82 0-28.73-12.9-28.73-28.73 0-15.82 12.91-28.73 28.73-28.73M1098.22 1377.18c15.82 0 28.72 12.91 28.72 28.73 0 15.83-12.9 28.73-28.72 28.73-15.83 0-28.74-12.9-28.74-28.73 0-15.82 12.91-28.73 28.74-28.73M1098.22 1660.18c15.82 0 28.72 12.91 28.72 28.73 0 15.83-12.9 28.73-28.72 28.73-15.83 0-28.74-12.9-28.74-28.73 0-15.82 12.91-28.73 28.74-28.73M1098.22 1943.18c15.82 0 28.72 12.91 28.72 28.74 0 15.82-12.9 28.73-28.72 28.73-15.83 0-28.74-12.91-28.74-28.73 0-15.83 12.91-28.74 28.74-28.74" transform="matrix(.13333 0 0 -.13333 0 800)"/></svg>